solid OpenSCAD_Model
  facet normal 0.9415440651830207 0 -0.3368898533922204
    outer loop
      vertex -0.22704200662837126 0.37999999999999995 0.280001
      vertex -0.22704200662837126 0.575 0.280001
      vertex -0.2217310878027088 0.37999999999999995 0.29484402376762153
    endloop
  endfacet
  facet normal 0.9039892931234433 0 -0.427555093430282
    outer loop
      vertex -0.2217310878027088 0.37999999999999995 0.29484402376762153
      vertex -0.2217310878027088 0.575 0.29484402376762153
      vertex -0.2116611034436052 0.37999999999999995 0.3161352168382394
    endloop
  endfacet
  facet normal 0.8577286100002721 0 -0.5141027441932216
    outer loop
      vertex -0.2116611034436052 0.37999999999999995 0.3161352168382394
      vertex -0.2116611034436052 0.575 0.3161352168382394
      vertex -0.19955270695261085 0.37999999999999995 0.3363368559247045
    endloop
  endfacet
  facet normal 0.8032075314806448 0 -0.5956993044924332
    outer loop
      vertex -0.19955270695261085 0.37999999999999995 0.3363368559247045
      vertex -0.19955270695261085 0.575 0.3363368559247045
      vertex -0.18552250880705687 0.37999999999999995 0.3552543881992749
    endloop
  endfacet
  facet normal 0.74095112535496 0 -0.6715589548470172
    outer loop
      vertex -0.18552250880705687 0.37999999999999995 0.3552543881992749
      vertex -0.18552250880705687 0.575 0.3552543881992749
      vertex -0.16970562748477142 0.37999999999999995 0.37270562748477143
    endloop
  endfacet
  facet normal 0.6715589548470174 0 -0.7409511253549602
    outer loop
      vertex -0.16970562748477142 0.37999999999999995 0.37270562748477143
      vertex -0.16970562748477142 0.575 0.37270562748477143
      vertex -0.15225438819927492 0.37999999999999995 0.38852250880705685
    endloop
  endfacet
  facet normal 0.9415440651830207 0 -0.3368898533922204
    outer loop
      vertex -0.2217310878027088 0.37999999999999995 0.29484402376762153
      vertex -0.22704200662837126 0.575 0.280001
      vertex -0.2217310878027088 0.575 0.29484402376762153
    endloop
  endfacet
  facet normal 0.9039892931234433 0 -0.427555093430282
    outer loop
      vertex -0.2116611034436052 0.37999999999999995 0.3161352168382394
      vertex -0.2217310878027088 0.575 0.29484402376762153
      vertex -0.2116611034436052 0.575 0.3161352168382394
    endloop
  endfacet
  facet normal 0.8577286100002721 0 -0.5141027441932216
    outer loop
      vertex -0.19955270695261085 0.37999999999999995 0.3363368559247045
      vertex -0.2116611034436052 0.575 0.3161352168382394
      vertex -0.19955270695261085 0.575 0.3363368559247045
    endloop
  endfacet
  facet normal 0.8032075314806448 0 -0.5956993044924332
    outer loop
      vertex -0.18552250880705687 0.37999999999999995 0.3552543881992749
      vertex -0.19955270695261085 0.575 0.3363368559247045
      vertex -0.18552250880705687 0.575 0.3552543881992749
    endloop
  endfacet
  facet normal 0.74095112535496 0 -0.6715589548470172
    outer loop
      vertex -0.16970562748477142 0.37999999999999995 0.37270562748477143
      vertex -0.18552250880705687 0.575 0.3552543881992749
      vertex -0.16970562748477142 0.575 0.37270562748477143
    endloop
  endfacet
  facet normal 0.6715589548470174 0 -0.7409511253549602
    outer loop
      vertex -0.15225438819927492 0.37999999999999995 0.38852250880705685
      vertex -0.16970562748477142 0.575 0.37270562748477143
      vertex -0.15225438819927492 0.575 0.38852250880705685
    endloop
  endfacet
  facet normal 0 1 0
    outer loop
      vertex -0.22704200662837126 0.37999999999999995 0.280001
      vertex -0.2217310878027088 0.37999999999999995 0.29484402376762153
      vertex 0.22704200662837126 0.37999999999999995 0.280001
    endloop
  endfacet
  facet normal 0 1 0
    outer loop
      vertex -0.2217310878027088 0.37999999999999995 0.29484402376762153
      vertex -0.2116611034436052 0.37999999999999995 0.3161352168382394
      vertex 0.2116611034436052 0.37999999999999995 0.3161352168382394
    endloop
  endfacet
  facet normal 0 1 0
    outer loop
      vertex -0.2116611034436052 0.37999999999999995 0.3161352168382394
      vertex -0.19955270695261085 0.37999999999999995 0.3363368559247045
      vertex 0.19955270695261085 0.37999999999999995 0.3363368559247045
    endloop
  endfacet
  facet normal 0 1 0
    outer loop
      vertex -0.19955270695261085 0.37999999999999995 0.3363368559247045
      vertex -0.18552250880705687 0.37999999999999995 0.3552543881992749
      vertex 0.18552250880705687 0.37999999999999995 0.3552543881992749
    endloop
  endfacet
  facet normal 0 1 0
    outer loop
      vertex -0.18552250880705687 0.37999999999999995 0.3552543881992749
      vertex -0.16970562748477142 0.37999999999999995 0.37270562748477143
      vertex 0.16970562748477142 0.37999999999999995 0.37270562748477143
    endloop
  endfacet
  facet normal 0 1 0
    outer loop
      vertex -0.16970562748477142 0.37999999999999995 0.37270562748477143
      vertex -0.15225438819927492 0.37999999999999995 0.38852250880705685
      vertex 0.15225438819927492 0.37999999999999995 0.38852250880705685
    endloop
  endfacet
  facet normal 0 1 0
    outer loop
      vertex -0.15225438819927492 0.37999999999999995 0.38852250880705685
      vertex -0.1333368559247045 0.37999999999999995 0.40255270695261086
      vertex 0.1333368559247045 0.37999999999999995 0.40255270695261086
    endloop
  endfacet
  facet normal 0 1 0
    outer loop
      vertex -0.1333368559247045 0.37999999999999995 0.40255270695261086
      vertex -0.11313521683823943 0.37999999999999995 0.4146611034436052
      vertex 0.11313521683823943 0.37999999999999995 0.4146611034436052
    endloop
  endfacet
  facet normal 0 1 0
    outer loop
      vertex -0.11313521683823943 0.37999999999999995 0.4146611034436052
      vertex -0.09184402376762155 0.37999999999999995 0.42473108780270885
      vertex 0.09184402376762155 0.37999999999999995 0.42473108780270885
    endloop
  endfacet
  facet normal 0 1 0
    outer loop
      vertex -0.09184402376762155 0.37999999999999995 0.42473108780270885
      vertex -0.06966832254107096 0.37999999999999995 0.4326656805757301
      vertex 0.06966832254107096 0.37999999999999995 0.4326656805757301
    endloop
  endfacet
  facet normal 0 1 0
    outer loop
      vertex -0.06966832254107096 0.37999999999999995 0.4326656805757301
      vertex -0.04682167728387078 0.37999999999999995 0.4383884672967753
      vertex 0.04682167728387078 0.37999999999999995 0.4383884672967753
    endloop
  endfacet
  facet normal 0 1 0
    outer loop
      vertex -0.04682167728387078 0.37999999999999995 0.4383884672967753
      vertex -0.023524113679094544 0.37999999999999995 0.44184433440132725
      vertex 0.023524113679094544 0.37999999999999995 0.44184433440132725
    endloop
  endfacet
  facet normal 0 1 0
    outer loop
      vertex -0.2217310878027088 0.37999999999999995 0.29484402376762153
      vertex 0.2116611034436052 0.37999999999999995 0.3161352168382394
      vertex 0.2217310878027088 0.37999999999999995 0.29484402376762153
    endloop
  endfacet
  facet normal 0 1 0
    outer loop
      vertex -0.2217310878027088 0.37999999999999995 0.29484402376762153
      vertex 0.2217310878027088 0.37999999999999995 0.29484402376762153
      vertex 0.22704200662837126 0.37999999999999995 0.280001
    endloop
  endfacet
  facet normal 0 1 0
    outer loop
      vertex -0.2116611034436052 0.37999999999999995 0.3161352168382394
      vertex 0.19955270695261085 0.37999999999999995 0.3363368559247045
      vertex 0.2116611034436052 0.37999999999999995 0.3161352168382394
    endloop
  endfacet
  facet normal 0 1 0
    outer loop
      vertex -0.19955270695261085 0.37999999999999995 0.3363368559247045
      vertex 0.18552250880705687 0.37999999999999995 0.3552543881992749
      vertex 0.19955270695261085 0.37999999999999995 0.3363368559247045
    endloop
  endfacet
  facet normal 0 1 0
    outer loop
      vertex -0.18552250880705687 0.37999999999999995 0.3552543881992749
      vertex 0.16970562748477142 0.37999999999999995 0.37270562748477143
      vertex 0.18552250880705687 0.37999999999999995 0.3552543881992749
    endloop
  endfacet
  facet normal 0 1 0
    outer loop
      vertex -0.16970562748477142 0.37999999999999995 0.37270562748477143
      vertex 0.15225438819927492 0.37999999999999995 0.38852250880705685
      vertex 0.16970562748477142 0.37999999999999995 0.37270562748477143
    endloop
  endfacet
  facet normal 0 1 0
    outer loop
      vertex -0.15225438819927492 0.37999999999999995 0.38852250880705685
      vertex 0.1333368559247045 0.37999999999999995 0.40255270695261086
      vertex 0.15225438819927492 0.37999999999999995 0.38852250880705685
    endloop
  endfacet
  facet normal 0 1 0
    outer loop
      vertex -0.1333368559247045 0.37999999999999995 0.40255270695261086
      vertex 0.11313521683823943 0.37999999999999995 0.4146611034436052
      vertex 0.1333368559247045 0.37999999999999995 0.40255270695261086
    endloop
  endfacet
  facet normal 0 1 0
    outer loop
      vertex -0.06966832254107096 0.37999999999999995 0.4326656805757301
      vertex 0.04682167728387078 0.37999999999999995 0.4383884672967753
      vertex 0.06966832254107096 0.37999999999999995 0.4326656805757301
    endloop
  endfacet
  facet normal 0 1 0
    outer loop
      vertex -0.023524113679094544 0.37999999999999995 0.44184433440132725
      vertex 0 0.37999999999999995 0.443
      vertex 0.023524113679094544 0.37999999999999995 0.44184433440132725
    endloop
  endfacet
  facet normal 0 1 0
    outer loop
      vertex -0.04682167728387078 0.37999999999999995 0.4383884672967753
      vertex 0.023524113679094544 0.37999999999999995 0.44184433440132725
      vertex 0.04682167728387078 0.37999999999999995 0.4383884672967753
    endloop
  endfacet
  facet normal 0 1 0
    outer loop
      vertex -0.11313521683823943 0.37999999999999995 0.4146611034436052
      vertex 0.09184402376762155 0.37999999999999995 0.42473108780270885
      vertex 0.11313521683823943 0.37999999999999995 0.4146611034436052
    endloop
  endfacet
  facet normal 0 1 0
    outer loop
      vertex -0.09184402376762155 0.37999999999999995 0.42473108780270885
      vertex 0.06966832254107096 0.37999999999999995 0.4326656805757301
      vertex 0.09184402376762155 0.37999999999999995 0.42473108780270885
    endloop
  endfacet
  facet normal 0.5956993044924335 0 -0.8032075314806449
    outer loop
      vertex -0.15225438819927492 0.37999999999999995 0.38852250880705685
      vertex -0.15225438819927492 0.575 0.38852250880705685
      vertex -0.1333368559247045 0.37999999999999995 0.40255270695261086
    endloop
  endfacet
  facet normal 0.5141027441932211 0 -0.8577286100002723
    outer loop
      vertex -0.1333368559247045 0.37999999999999995 0.40255270695261086
      vertex -0.1333368559247045 0.575 0.40255270695261086
      vertex -0.11313521683823943 0.37999999999999995 0.4146611034436052
    endloop
  endfacet
  facet normal 0.4275550934302839 0 -0.9039892931234425
    outer loop
      vertex -0.11313521683823943 0.37999999999999995 0.4146611034436052
      vertex -0.11313521683823943 0.575 0.4146611034436052
      vertex -0.09184402376762155 0.37999999999999995 0.42473108780270885
    endloop
  endfacet
  facet normal 0.3368898533922187 0 -0.9415440651830213
    outer loop
      vertex -0.09184402376762155 0.37999999999999995 0.42473108780270885
      vertex -0.09184402376762155 0.575 0.42473108780270885
      vertex -0.06966832254107096 0.37999999999999995 0.4326656805757301
    endloop
  endfacet
  facet normal 0.24298017990326268 0 -0.9700312531945443
    outer loop
      vertex -0.06966832254107096 0.37999999999999995 0.4326656805757301
      vertex -0.06966832254107096 0.575 0.4326656805757301
      vertex -0.04682167728387078 0.37999999999999995 0.4383884672967753
    endloop
  endfacet
  facet normal 0.14673047445536322 0 -0.9891765099647808
    outer loop
      vertex -0.04682167728387078 0.37999999999999995 0.4383884672967753
      vertex -0.04682167728387078 0.575 0.4383884672967753
      vertex -0.023524113679094544 0.37999999999999995 0.44184433440132725
    endloop
  endfacet
  facet normal 0.04906767432741814 0 -0.9987954562051723
    outer loop
      vertex -0.023524113679094544 0.37999999999999995 0.44184433440132725
      vertex -0.023524113679094544 0.575 0.44184433440132725
      vertex 0 0.37999999999999995 0.443
    endloop
  endfacet
  facet normal 0.5956993044924335 0 -0.8032075314806449
    outer loop
      vertex -0.1333368559247045 0.37999999999999995 0.40255270695261086
      vertex -0.15225438819927492 0.575 0.38852250880705685
      vertex -0.1333368559247045 0.575 0.40255270695261086
    endloop
  endfacet
  facet normal 0.5141027441932211 0 -0.8577286100002723
    outer loop
      vertex -0.11313521683823943 0.37999999999999995 0.4146611034436052
      vertex -0.1333368559247045 0.575 0.40255270695261086
      vertex -0.11313521683823943 0.575 0.4146611034436052
    endloop
  endfacet
  facet normal 0.4275550934302839 0 -0.9039892931234425
    outer loop
      vertex -0.09184402376762155 0.37999999999999995 0.42473108780270885
      vertex -0.11313521683823943 0.575 0.4146611034436052
      vertex -0.09184402376762155 0.575 0.42473108780270885
    endloop
  endfacet
  facet normal 0.3368898533922187 0 -0.9415440651830213
    outer loop
      vertex -0.06966832254107096 0.37999999999999995 0.4326656805757301
      vertex -0.09184402376762155 0.575 0.42473108780270885
      vertex -0.06966832254107096 0.575 0.4326656805757301
    endloop
  endfacet
  facet normal 0.24298017990326268 0 -0.9700312531945443
    outer loop
      vertex -0.04682167728387078 0.37999999999999995 0.4383884672967753
      vertex -0.06966832254107096 0.575 0.4326656805757301
      vertex -0.04682167728387078 0.575 0.4383884672967753
    endloop
  endfacet
  facet normal 0.14673047445536322 0 -0.9891765099647808
    outer loop
      vertex -0.023524113679094544 0.37999999999999995 0.44184433440132725
      vertex -0.04682167728387078 0.575 0.4383884672967753
      vertex -0.023524113679094544 0.575 0.44184433440132725
    endloop
  endfacet
  facet normal -0.04906767432741814 0 -0.9987954562051723
    outer loop
      vertex 0 0.37999999999999995 0.443
      vertex 0 0.575 0.443
      vertex 0.023524113679094544 0.37999999999999995 0.44184433440132725
    endloop
  endfacet
  facet normal -0.14673047445536322 0 -0.9891765099647808
    outer loop
      vertex 0.023524113679094544 0.37999999999999995 0.44184433440132725
      vertex 0.023524113679094544 0.5742942765896272 0.44184433440132725
      vertex 0.04682167728387078 0.37999999999999995 0.4383884672967753
    endloop
  endfacet
  facet normal -0.5141027441932211 0 -0.8577286100002723
    outer loop
      vertex 0.11313521683823943 0.37999999999999995 0.4146611034436052
      vertex 0.11313521683823943 0.5716059434948528 0.4146611034436052
      vertex 0.1333368559247045 0.37999999999999995 0.40255270695261086
    endloop
  endfacet
  facet normal -0.3368898533922188 0 -0.9415440651830213
    outer loop
      vertex 0.06966832254107096 0.37999999999999995 0.4326656805757301
      vertex 0.06966832254107096 0.5729099503237678 0.4326656805757301
      vertex 0.09184402376762155 0.37999999999999995 0.42473108780270885
    endloop
  endfacet
  facet normal -0.24298017990326265 0 -0.9700312531945442
    outer loop
      vertex 0.04682167728387078 0.37999999999999995 0.4383884672967753
      vertex 0.04682167728387078 0.5735953496814838 0.4383884672967753
      vertex 0.06966832254107096 0.37999999999999995 0.4326656805757301
    endloop
  endfacet
  facet normal -0.42755509343028403 0 -0.9039892931234425
    outer loop
      vertex 0.11313521683823943 0.37999999999999995 0.4146611034436052
      vertex 0.09184402376762155 0.37999999999999995 0.42473108780270885
      vertex 0.09184402376762155 0.5722446792869713 0.42473108780270885
    endloop
  endfacet
  facet normal 0.04906767432741814 0 -0.9987954562051723
    outer loop
      vertex 0 0.37999999999999995 0.443
      vertex -0.023524113679094544 0.575 0.44184433440132725
      vertex 0 0.575 0.443
    endloop
  endfacet
  facet normal -0.04906767432741815 0 -0.9987954562051724
    outer loop
      vertex 0.023524113679094544 0.37999999999999995 0.44184433440132725
      vertex 0 0.575 0.443
      vertex 0.023524113679094544 0.5742942765896272 0.44184433440132725
    endloop
  endfacet
  facet normal -0.14673047445536322 0 -0.9891765099647807
    outer loop
      vertex 0.04682167728387078 0.37999999999999995 0.4383884672967753
      vertex 0.023524113679094544 0.5742942765896272 0.44184433440132725
      vertex 0.04682167728387078 0.5735953496814838 0.4383884672967753
    endloop
  endfacet
  facet normal -0.24298017990326265 0 -0.9700312531945443
    outer loop
      vertex 0.06966832254107096 0.37999999999999995 0.4326656805757301
      vertex 0.04682167728387078 0.5735953496814838 0.4383884672967753
      vertex 0.06966832254107096 0.5729099503237678 0.4326656805757301
    endloop
  endfacet
  facet normal -0.3368898533922187 0 -0.9415440651830213
    outer loop
      vertex 0.09184402376762155 0.37999999999999995 0.42473108780270885
      vertex 0.06966832254107096 0.5729099503237678 0.4326656805757301
      vertex 0.09184402376762155 0.5722446792869713 0.42473108780270885
    endloop
  endfacet
  facet normal -0.42755509343028403 0 -0.9039892931234425
    outer loop
      vertex 0.11313521683823943 0.37999999999999995 0.4146611034436052
      vertex 0.09184402376762155 0.5722446792869713 0.42473108780270885
      vertex 0.11313521683823943 0.5716059434948528 0.4146611034436052
    endloop
  endfacet
  facet normal -0.74095112535496 0 -0.6715589548470173
    outer loop
      vertex 0.18552250880705687 0.37999999999999995 0.3552543881992749
      vertex 0.16970562748477142 0.37999999999999995 0.37270562748477143
      vertex 0.16970562748477142 0.5715235389693211 0.37270562748477143
    endloop
  endfacet
  facet normal -0.8032075314806449 0 -0.5956993044924331
    outer loop
      vertex 0.19955270695261085 0.37999999999999995 0.3363368559247045
      vertex 0.18552250880705687 0.37999999999999995 0.3552543881992749
      vertex 0.18552250880705687 0.5721779604425271 0.3552543881992749
    endloop
  endfacet
  facet normal -0.9415440651830207 0 -0.33688985339222033
    outer loop
      vertex 0.22704200662837126 0.37999999999999995 0.280001
      vertex 0.2217310878027088 0.37999999999999995 0.29484402376762153
      vertex 0.2217310878027088 0.5744433491087142 0.29484402376762153
    endloop
  endfacet
  facet normal -0.9039892931234434 0 -0.4275550934302821
    outer loop
      vertex 0.2217310878027088 0.37999999999999995 0.29484402376762153
      vertex 0.2116611034436052 0.37999999999999995 0.3161352168382394
      vertex 0.2116611034436052 0.5736449293685659 0.3161352168382394
    endloop
  endfacet
  facet normal -0.8577286100002721 0 -0.5141027441932216
    outer loop
      vertex 0.2116611034436052 0.37999999999999995 0.3161352168382394
      vertex 0.19955270695261085 0.37999999999999995 0.3363368559247045
      vertex 0.19955270695261085 0.5728873679028236 0.3363368559247045
    endloop
  endfacet
  facet normal -0.6715589548470173 0 -0.7409511253549601
    outer loop
      vertex 0.16970562748477142 0.37999999999999995 0.37270562748477143
      vertex 0.15225438819927492 0.37999999999999995 0.38852250880705685
      vertex 0.15225438819927492 0.5709304059197354 0.38852250880705685
    endloop
  endfacet
  facet normal -0.5956993044924334 0 -0.8032075314806448
    outer loop
      vertex 0.15225438819927492 0.37999999999999995 0.38852250880705685
      vertex 0.1333368559247045 0.37999999999999995 0.40255270695261086
      vertex 0.1333368559247045 0.5709998943222588 0.40255270695261086
    endloop
  endfacet
  facet normal -0.74095112535496 0 -0.6715589548470173
    outer loop
      vertex 0.18552250880705687 0.37999999999999995 0.3552543881992749
      vertex 0.16970562748477142 0.5715235389693211 0.37270562748477143
      vertex 0.18552250880705687 0.5721779604425271 0.3552543881992749
    endloop
  endfacet
  facet normal -0.9415440651830208 0 -0.3368898533922204
    outer loop
      vertex 0.22704200662837126 0.37999999999999995 0.280001
      vertex 0.2217310878027088 0.5744433491087142 0.29484402376762153
      vertex 0.22704200662837126 0.5749999625 0.280001
    endloop
  endfacet
  facet normal -0.9039892931234433 0 -0.4275550934302821
    outer loop
      vertex 0.2217310878027088 0.37999999999999995 0.29484402376762153
      vertex 0.2116611034436052 0.5736449293685659 0.3161352168382394
      vertex 0.2217310878027088 0.5744433491087142 0.29484402376762153
    endloop
  endfacet
  facet normal -0.8577286100002721 0 -0.5141027441932216
    outer loop
      vertex 0.2116611034436052 0.37999999999999995 0.3161352168382394
      vertex 0.19955270695261085 0.5728873679028236 0.3363368559247045
      vertex 0.2116611034436052 0.5736449293685659 0.3161352168382394
    endloop
  endfacet
  facet normal -0.803207531480645 0 -0.5956993044924332
    outer loop
      vertex 0.19955270695261085 0.37999999999999995 0.3363368559247045
      vertex 0.18552250880705687 0.5721779604425271 0.3552543881992749
      vertex 0.19955270695261085 0.5728873679028236 0.3363368559247045
    endloop
  endfacet
  facet normal -0.5956993044924339 0 -0.8032075314806444
    outer loop
      vertex 0.15225438819927492 0.37999999999999995 0.38852250880705685
      vertex 0.1436395942795512 0.5706908121716134 0.394911675423641
      vertex 0.15225438819927492 0.5709304059197354 0.38852250880705685
    endloop
  endfacet
  facet normal -0.5141027441932212 0 -0.8577286100002723
    outer loop
      vertex 0.1333368559247045 0.37999999999999995 0.40255270695261086
      vertex 0.11313521683823943 0.5716059434948528 0.4146611034436052
      vertex 0.1333368559247045 0.5709998943222588 0.40255270695261086
    endloop
  endfacet
  facet normal -0.595699304492433 7.212701699847693e-17 -0.803207531480645
    outer loop
      vertex 0.15225438819927492 0.37999999999999995 0.38852250880705685
      vertex 0.1333368559247045 0.5709998943222588 0.40255270695261086
      vertex 0.1436395942795512 0.5706908121716134 0.394911675423641
    endloop
  endfacet
  facet normal -0.6715589548470173 0 -0.7409511253549601
    outer loop
      vertex 0.16970562748477142 0.37999999999999995 0.37270562748477143
      vertex 0.15225438819927492 0.5709304059197354 0.38852250880705685
      vertex 0.16970562748477142 0.5715235389693211 0.37270562748477143
    endloop
  endfacet
  facet normal 0 0 1
    outer loop
      vertex -0.22704200662837126 0.37999999999999995 0.280001
      vertex 0 0.575 0.280001
      vertex -0.22704200662837126 0.575 0.280001
    endloop
  endfacet
  facet normal 0 0 1
    outer loop
      vertex -0.22704200662837126 0.37999999999999995 0.280001
      vertex 0.0000012499999999665599 0.5749999625 0.280001
      vertex 0 0.575 0.280001
    endloop
  endfacet
  facet normal 0 0 1
    outer loop
      vertex -0.22704200662837126 0.37999999999999995 0.280001
      vertex 0.22704200662837126 0.37999999999999995 0.280001
      vertex 0.22704200662837126 0.5749999625 0.280001
    endloop
  endfacet
  facet normal 0 0 1
    outer loop
      vertex -0.22704200662837126 0.37999999999999995 0.280001
      vertex 0.22704200662837126 0.5749999625 0.280001
      vertex 0.0000012499999999665599 0.5749999625 0.280001
    endloop
  endfacet
  facet normal 0.9415440651830207 0 -0.3368898533922204
    outer loop
      vertex -0.22704200662837126 -0.37999999999999995 0.280001
      vertex -0.2217310878027088 -0.575 0.29484402376762153
      vertex -0.22704200662837126 -0.575 0.280001
    endloop
  endfacet
  facet normal 0.9039892931234433 0 -0.427555093430282
    outer loop
      vertex -0.2217310878027088 -0.37999999999999995 0.29484402376762153
      vertex -0.2116611034436052 -0.575 0.3161352168382394
      vertex -0.2217310878027088 -0.575 0.29484402376762153
    endloop
  endfacet
  facet normal 0.8577286100002721 0 -0.5141027441932216
    outer loop
      vertex -0.2116611034436052 -0.37999999999999995 0.3161352168382394
      vertex -0.19955270695261085 -0.575 0.3363368559247045
      vertex -0.2116611034436052 -0.575 0.3161352168382394
    endloop
  endfacet
  facet normal 0.8032075314806448 0 -0.5956993044924332
    outer loop
      vertex -0.19955270695261085 -0.37999999999999995 0.3363368559247045
      vertex -0.18552250880705687 -0.575 0.3552543881992749
      vertex -0.19955270695261085 -0.575 0.3363368559247045
    endloop
  endfacet
  facet normal 0.74095112535496 0 -0.6715589548470172
    outer loop
      vertex -0.18552250880705687 -0.37999999999999995 0.3552543881992749
      vertex -0.16970562748477142 -0.575 0.37270562748477143
      vertex -0.18552250880705687 -0.575 0.3552543881992749
    endloop
  endfacet
  facet normal 0.6715589548470174 0 -0.7409511253549602
    outer loop
      vertex -0.16970562748477142 -0.37999999999999995 0.37270562748477143
      vertex -0.15225438819927492 -0.575 0.38852250880705685
      vertex -0.16970562748477142 -0.575 0.37270562748477143
    endloop
  endfacet
  facet normal 0.9415440651830207 0 -0.3368898533922204
    outer loop
      vertex -0.22704200662837126 -0.37999999999999995 0.280001
      vertex -0.2217310878027088 -0.37999999999999995 0.29484402376762153
      vertex -0.2217310878027088 -0.575 0.29484402376762153
    endloop
  endfacet
  facet normal 0.9039892931234433 0 -0.427555093430282
    outer loop
      vertex -0.2217310878027088 -0.37999999999999995 0.29484402376762153
      vertex -0.2116611034436052 -0.37999999999999995 0.3161352168382394
      vertex -0.2116611034436052 -0.575 0.3161352168382394
    endloop
  endfacet
  facet normal 0.8577286100002721 0 -0.5141027441932216
    outer loop
      vertex -0.2116611034436052 -0.37999999999999995 0.3161352168382394
      vertex -0.19955270695261085 -0.37999999999999995 0.3363368559247045
      vertex -0.19955270695261085 -0.575 0.3363368559247045
    endloop
  endfacet
  facet normal 0.8032075314806448 0 -0.5956993044924332
    outer loop
      vertex -0.19955270695261085 -0.37999999999999995 0.3363368559247045
      vertex -0.18552250880705687 -0.37999999999999995 0.3552543881992749
      vertex -0.18552250880705687 -0.575 0.3552543881992749
    endloop
  endfacet
  facet normal 0.74095112535496 0 -0.6715589548470172
    outer loop
      vertex -0.18552250880705687 -0.37999999999999995 0.3552543881992749
      vertex -0.16970562748477142 -0.37999999999999995 0.37270562748477143
      vertex -0.16970562748477142 -0.575 0.37270562748477143
    endloop
  endfacet
  facet normal 0.6715589548470174 0 -0.7409511253549602
    outer loop
      vertex -0.16970562748477142 -0.37999999999999995 0.37270562748477143
      vertex -0.15225438819927492 -0.37999999999999995 0.38852250880705685
      vertex -0.15225438819927492 -0.575 0.38852250880705685
    endloop
  endfacet
  facet normal 0.5956993044924335 0 -0.8032075314806449
    outer loop
      vertex -0.15225438819927492 -0.37999999999999995 0.38852250880705685
      vertex -0.1333368559247045 -0.575 0.40255270695261086
      vertex -0.15225438819927492 -0.575 0.38852250880705685
    endloop
  endfacet
  facet normal 0.5141027441932211 0 -0.8577286100002723
    outer loop
      vertex -0.1333368559247045 -0.37999999999999995 0.40255270695261086
      vertex -0.11313521683823943 -0.575 0.4146611034436052
      vertex -0.1333368559247045 -0.575 0.40255270695261086
    endloop
  endfacet
  facet normal 0.4275550934302839 0 -0.9039892931234425
    outer loop
      vertex -0.11313521683823943 -0.37999999999999995 0.4146611034436052
      vertex -0.09184402376762155 -0.575 0.42473108780270885
      vertex -0.11313521683823943 -0.575 0.4146611034436052
    endloop
  endfacet
  facet normal 0.3368898533922187 0 -0.9415440651830213
    outer loop
      vertex -0.09184402376762155 -0.37999999999999995 0.42473108780270885
      vertex -0.06966832254107096 -0.575 0.4326656805757301
      vertex -0.09184402376762155 -0.575 0.42473108780270885
    endloop
  endfacet
  facet normal 0.24298017990326268 0 -0.9700312531945443
    outer loop
      vertex -0.06966832254107096 -0.37999999999999995 0.4326656805757301
      vertex -0.04682167728387078 -0.575 0.4383884672967753
      vertex -0.06966832254107096 -0.575 0.4326656805757301
    endloop
  endfacet
  facet normal 0.14673047445536322 0 -0.9891765099647808
    outer loop
      vertex -0.04682167728387078 -0.37999999999999995 0.4383884672967753
      vertex -0.023524113679094544 -0.575 0.44184433440132725
      vertex -0.04682167728387078 -0.575 0.4383884672967753
    endloop
  endfacet
  facet normal 0.04906767432741814 0 -0.9987954562051723
    outer loop
      vertex -0.023524113679094544 -0.37999999999999995 0.44184433440132725
      vertex 0 -0.575 0.443
      vertex -0.023524113679094544 -0.575 0.44184433440132725
    endloop
  endfacet
  facet normal 0.5956993044924335 0 -0.8032075314806449
    outer loop
      vertex -0.15225438819927492 -0.37999999999999995 0.38852250880705685
      vertex -0.1333368559247045 -0.37999999999999995 0.40255270695261086
      vertex -0.1333368559247045 -0.575 0.40255270695261086
    endloop
  endfacet
  facet normal 0.5141027441932211 0 -0.8577286100002723
    outer loop
      vertex -0.1333368559247045 -0.37999999999999995 0.40255270695261086
      vertex -0.11313521683823943 -0.37999999999999995 0.4146611034436052
      vertex -0.11313521683823943 -0.575 0.4146611034436052
    endloop
  endfacet
  facet normal 0.4275550934302839 0 -0.9039892931234425
    outer loop
      vertex -0.11313521683823943 -0.37999999999999995 0.4146611034436052
      vertex -0.09184402376762155 -0.37999999999999995 0.42473108780270885
      vertex -0.09184402376762155 -0.575 0.42473108780270885
    endloop
  endfacet
  facet normal 0.3368898533922187 0 -0.9415440651830213
    outer loop
      vertex -0.09184402376762155 -0.37999999999999995 0.42473108780270885
      vertex -0.06966832254107096 -0.37999999999999995 0.4326656805757301
      vertex -0.06966832254107096 -0.575 0.4326656805757301
    endloop
  endfacet
  facet normal 0.24298017990326268 0 -0.9700312531945443
    outer loop
      vertex -0.06966832254107096 -0.37999999999999995 0.4326656805757301
      vertex -0.04682167728387078 -0.37999999999999995 0.4383884672967753
      vertex -0.04682167728387078 -0.575 0.4383884672967753
    endloop
  endfacet
  facet normal 0.14673047445536322 0 -0.9891765099647808
    outer loop
      vertex -0.04682167728387078 -0.37999999999999995 0.4383884672967753
      vertex -0.023524113679094544 -0.37999999999999995 0.44184433440132725
      vertex -0.023524113679094544 -0.575 0.44184433440132725
    endloop
  endfacet
  facet normal -0.04906767432741814 0 -0.9987954562051723
    outer loop
      vertex 0 -0.37999999999999995 0.443
      vertex 0.023524113679094544 -0.5742942765896272 0.44184433440132725
      vertex 0 -0.575 0.443
    endloop
  endfacet
  facet normal -0.14673047445536322 0 -0.9891765099647808
    outer loop
      vertex 0.023524113679094544 -0.37999999999999995 0.44184433440132725
      vertex 0.04682167728387078 -0.5735953496814838 0.4383884672967753
      vertex 0.023524113679094544 -0.5742942765896272 0.44184433440132725
    endloop
  endfacet
  facet normal -0.5141027441932211 0 -0.8577286100002723
    outer loop
      vertex 0.11313521683823943 -0.37999999999999995 0.4146611034436052
      vertex 0.1333368559247045 -0.5709998943222588 0.40255270695261086
      vertex 0.11313521683823943 -0.5716059434948528 0.4146611034436052
    endloop
  endfacet
  facet normal -0.3368898533922188 0 -0.9415440651830213
    outer loop
      vertex 0.06966832254107096 -0.37999999999999995 0.4326656805757301
      vertex 0.09184402376762155 -0.5722446792869713 0.42473108780270885
      vertex 0.06966832254107096 -0.5729099503237678 0.4326656805757301
    endloop
  endfacet
  facet normal -0.24298017990326265 0 -0.9700312531945442
    outer loop
      vertex 0.04682167728387078 -0.37999999999999995 0.4383884672967753
      vertex 0.06966832254107096 -0.5729099503237678 0.4326656805757301
      vertex 0.04682167728387078 -0.5735953496814838 0.4383884672967753
    endloop
  endfacet
  facet normal -0.42755509343028403 0 -0.9039892931234425
    outer loop
      vertex 0.09184402376762155 -0.37999999999999995 0.42473108780270885
      vertex 0.11313521683823943 -0.5716059434948528 0.4146611034436052
      vertex 0.09184402376762155 -0.5722446792869713 0.42473108780270885
    endloop
  endfacet
  facet normal 0.04906767432741814 0 -0.9987954562051723
    outer loop
      vertex -0.023524113679094544 -0.37999999999999995 0.44184433440132725
      vertex 0 -0.37999999999999995 0.443
      vertex 0 -0.575 0.443
    endloop
  endfacet
  facet normal -0.04906767432741815 0 -0.9987954562051724
    outer loop
      vertex 0 -0.37999999999999995 0.443
      vertex 0.023524113679094544 -0.37999999999999995 0.44184433440132725
      vertex 0.023524113679094544 -0.5742942765896272 0.44184433440132725
    endloop
  endfacet
  facet normal -0.14673047445536322 0 -0.9891765099647807
    outer loop
      vertex 0.023524113679094544 -0.37999999999999995 0.44184433440132725
      vertex 0.04682167728387078 -0.37999999999999995 0.4383884672967753
      vertex 0.04682167728387078 -0.5735953496814838 0.4383884672967753
    endloop
  endfacet
  facet normal -0.24298017990326265 0 -0.9700312531945443
    outer loop
      vertex 0.04682167728387078 -0.37999999999999995 0.4383884672967753
      vertex 0.06966832254107096 -0.37999999999999995 0.4326656805757301
      vertex 0.06966832254107096 -0.5729099503237678 0.4326656805757301
    endloop
  endfacet
  facet normal -0.3368898533922187 0 -0.9415440651830213
    outer loop
      vertex 0.06966832254107096 -0.37999999999999995 0.4326656805757301
      vertex 0.09184402376762155 -0.37999999999999995 0.42473108780270885
      vertex 0.09184402376762155 -0.5722446792869713 0.42473108780270885
    endloop
  endfacet
  facet normal -0.42755509343028403 0 -0.9039892931234425
    outer loop
      vertex 0.11313521683823943 -0.37999999999999995 0.4146611034436052
      vertex 0.11313521683823943 -0.5716059434948528 0.4146611034436052
      vertex 0.09184402376762155 -0.37999999999999995 0.42473108780270885
    endloop
  endfacet
  facet normal 0 -1 0
    outer loop
      vertex -0.22704200662837126 -0.37999999999999995 0.280001
      vertex 0.2217310878027088 -0.37999999999999995 0.29484402376762153
      vertex -0.2217310878027088 -0.37999999999999995 0.29484402376762153
    endloop
  endfacet
  facet normal 0 -1 0
    outer loop
      vertex -0.2217310878027088 -0.37999999999999995 0.29484402376762153
      vertex 0.2217310878027088 -0.37999999999999995 0.29484402376762153
      vertex -0.2116611034436052 -0.37999999999999995 0.3161352168382394
    endloop
  endfacet
  facet normal 0 -1 0
    outer loop
      vertex -0.2116611034436052 -0.37999999999999995 0.3161352168382394
      vertex 0.2116611034436052 -0.37999999999999995 0.3161352168382394
      vertex -0.19955270695261085 -0.37999999999999995 0.3363368559247045
    endloop
  endfacet
  facet normal 0 -1 0
    outer loop
      vertex -0.19955270695261085 -0.37999999999999995 0.3363368559247045
      vertex 0.19955270695261085 -0.37999999999999995 0.3363368559247045
      vertex -0.18552250880705687 -0.37999999999999995 0.3552543881992749
    endloop
  endfacet
  facet normal 0 -1 0
    outer loop
      vertex -0.18552250880705687 -0.37999999999999995 0.3552543881992749
      vertex 0.18552250880705687 -0.37999999999999995 0.3552543881992749
      vertex -0.16970562748477142 -0.37999999999999995 0.37270562748477143
    endloop
  endfacet
  facet normal 0 -1 0
    outer loop
      vertex -0.16970562748477142 -0.37999999999999995 0.37270562748477143
      vertex 0.16970562748477142 -0.37999999999999995 0.37270562748477143
      vertex -0.15225438819927492 -0.37999999999999995 0.38852250880705685
    endloop
  endfacet
  facet normal 0 -1 0
    outer loop
      vertex -0.15225438819927492 -0.37999999999999995 0.38852250880705685
      vertex 0.15225438819927492 -0.37999999999999995 0.38852250880705685
      vertex -0.1333368559247045 -0.37999999999999995 0.40255270695261086
    endloop
  endfacet
  facet normal 0 -1 0
    outer loop
      vertex -0.1333368559247045 -0.37999999999999995 0.40255270695261086
      vertex 0.1333368559247045 -0.37999999999999995 0.40255270695261086
      vertex -0.11313521683823943 -0.37999999999999995 0.4146611034436052
    endloop
  endfacet
  facet normal 0 -1 0
    outer loop
      vertex -0.11313521683823943 -0.37999999999999995 0.4146611034436052
      vertex 0.11313521683823943 -0.37999999999999995 0.4146611034436052
      vertex -0.09184402376762155 -0.37999999999999995 0.42473108780270885
    endloop
  endfacet
  facet normal 0 -1 0
    outer loop
      vertex -0.09184402376762155 -0.37999999999999995 0.42473108780270885
      vertex 0.09184402376762155 -0.37999999999999995 0.42473108780270885
      vertex -0.06966832254107096 -0.37999999999999995 0.4326656805757301
    endloop
  endfacet
  facet normal 0 -1 0
    outer loop
      vertex -0.06966832254107096 -0.37999999999999995 0.4326656805757301
      vertex 0.06966832254107096 -0.37999999999999995 0.4326656805757301
      vertex -0.04682167728387078 -0.37999999999999995 0.4383884672967753
    endloop
  endfacet
  facet normal 0 -1 0
    outer loop
      vertex -0.22704200662837126 -0.37999999999999995 0.280001
      vertex 0.22704200662837126 -0.37999999999999995 0.280001
      vertex 0.2217310878027088 -0.37999999999999995 0.29484402376762153
    endloop
  endfacet
  facet normal 0 -1 0
    outer loop
      vertex -0.2116611034436052 -0.37999999999999995 0.3161352168382394
      vertex 0.2217310878027088 -0.37999999999999995 0.29484402376762153
      vertex 0.2116611034436052 -0.37999999999999995 0.3161352168382394
    endloop
  endfacet
  facet normal 0 -1 0
    outer loop
      vertex -0.19955270695261085 -0.37999999999999995 0.3363368559247045
      vertex 0.2116611034436052 -0.37999999999999995 0.3161352168382394
      vertex 0.19955270695261085 -0.37999999999999995 0.3363368559247045
    endloop
  endfacet
  facet normal 0 -1 0
    outer loop
      vertex -0.18552250880705687 -0.37999999999999995 0.3552543881992749
      vertex 0.19955270695261085 -0.37999999999999995 0.3363368559247045
      vertex 0.18552250880705687 -0.37999999999999995 0.3552543881992749
    endloop
  endfacet
  facet normal 0 -1 0
    outer loop
      vertex -0.16970562748477142 -0.37999999999999995 0.37270562748477143
      vertex 0.18552250880705687 -0.37999999999999995 0.3552543881992749
      vertex 0.16970562748477142 -0.37999999999999995 0.37270562748477143
    endloop
  endfacet
  facet normal 0 -1 0
    outer loop
      vertex -0.1333368559247045 -0.37999999999999995 0.40255270695261086
      vertex 0.15225438819927492 -0.37999999999999995 0.38852250880705685
      vertex 0.1333368559247045 -0.37999999999999995 0.40255270695261086
    endloop
  endfacet
  facet normal 0 -1 0
    outer loop
      vertex -0.11313521683823943 -0.37999999999999995 0.4146611034436052
      vertex 0.1333368559247045 -0.37999999999999995 0.40255270695261086
      vertex 0.11313521683823943 -0.37999999999999995 0.4146611034436052
    endloop
  endfacet
  facet normal 0 -1 0
    outer loop
      vertex -0.04682167728387078 -0.37999999999999995 0.4383884672967753
      vertex 0.04682167728387078 -0.37999999999999995 0.4383884672967753
      vertex -0.023524113679094544 -0.37999999999999995 0.44184433440132725
    endloop
  endfacet
  facet normal 0 -1 0
    outer loop
      vertex -0.023524113679094544 -0.37999999999999995 0.44184433440132725
      vertex 0.023524113679094544 -0.37999999999999995 0.44184433440132725
      vertex 0 -0.37999999999999995 0.443
    endloop
  endfacet
  facet normal 0 -1 0
    outer loop
      vertex -0.023524113679094544 -0.37999999999999995 0.44184433440132725
      vertex 0.04682167728387078 -0.37999999999999995 0.4383884672967753
      vertex 0.023524113679094544 -0.37999999999999995 0.44184433440132725
    endloop
  endfacet
  facet normal 0 -1 0
    outer loop
      vertex -0.06966832254107096 -0.37999999999999995 0.4326656805757301
      vertex 0.09184402376762155 -0.37999999999999995 0.42473108780270885
      vertex 0.06966832254107096 -0.37999999999999995 0.4326656805757301
    endloop
  endfacet
  facet normal 0 -1 0
    outer loop
      vertex -0.09184402376762155 -0.37999999999999995 0.42473108780270885
      vertex 0.11313521683823943 -0.37999999999999995 0.4146611034436052
      vertex 0.09184402376762155 -0.37999999999999995 0.42473108780270885
    endloop
  endfacet
  facet normal 0 -1 0
    outer loop
      vertex -0.04682167728387078 -0.37999999999999995 0.4383884672967753
      vertex 0.06966832254107096 -0.37999999999999995 0.4326656805757301
      vertex 0.04682167728387078 -0.37999999999999995 0.4383884672967753
    endloop
  endfacet
  facet normal 0 -1 0
    outer loop
      vertex -0.15225438819927492 -0.37999999999999995 0.38852250880705685
      vertex 0.16970562748477142 -0.37999999999999995 0.37270562748477143
      vertex 0.15225438819927492 -0.37999999999999995 0.38852250880705685
    endloop
  endfacet
  facet normal -0.74095112535496 0 -0.6715589548470173
    outer loop
      vertex 0.16970562748477142 -0.37999999999999995 0.37270562748477143
      vertex 0.18552250880705687 -0.5721779604425271 0.3552543881992749
      vertex 0.16970562748477142 -0.5715235389693211 0.37270562748477143
    endloop
  endfacet
  facet normal -0.8032075314806449 0 -0.5956993044924331
    outer loop
      vertex 0.18552250880705687 -0.37999999999999995 0.3552543881992749
      vertex 0.19955270695261085 -0.5728873679028236 0.3363368559247045
      vertex 0.18552250880705687 -0.5721779604425271 0.3552543881992749
    endloop
  endfacet
  facet normal -0.9415440651830207 0 -0.33688985339222033
    outer loop
      vertex 0.2217310878027088 -0.37999999999999995 0.29484402376762153
      vertex 0.22704200662837126 -0.5749999625 0.280001
      vertex 0.2217310878027088 -0.5744433491087142 0.29484402376762153
    endloop
  endfacet
  facet normal -0.9039892931234434 0 -0.4275550934302821
    outer loop
      vertex 0.2116611034436052 -0.37999999999999995 0.3161352168382394
      vertex 0.2217310878027088 -0.5744433491087142 0.29484402376762153
      vertex 0.2116611034436052 -0.5736449293685659 0.3161352168382394
    endloop
  endfacet
  facet normal -0.8577286100002721 0 -0.5141027441932216
    outer loop
      vertex 0.19955270695261085 -0.37999999999999995 0.3363368559247045
      vertex 0.2116611034436052 -0.5736449293685659 0.3161352168382394
      vertex 0.19955270695261085 -0.5728873679028236 0.3363368559247045
    endloop
  endfacet
  facet normal -0.5956993044924339 0 -0.8032075314806444
    outer loop
      vertex 0.15225438819927492 -0.37999999999999995 0.38852250880705685
      vertex 0.15225438819927492 -0.5709304059197354 0.38852250880705685
      vertex 0.1436395942795512 -0.5706908121716135 0.394911675423641
    endloop
  endfacet
  facet normal -0.6715589548470173 0 -0.7409511253549601
    outer loop
      vertex 0.15225438819927492 -0.37999999999999995 0.38852250880705685
      vertex 0.16970562748477142 -0.5715235389693211 0.37270562748477143
      vertex 0.15225438819927492 -0.5709304059197354 0.38852250880705685
    endloop
  endfacet
  facet normal -0.595699304492433 0 -0.8032075314806453
    outer loop
      vertex 0.1333368559247045 -0.37999999999999995 0.40255270695261086
      vertex 0.1436395942795512 -0.5706908121716135 0.394911675423641
      vertex 0.1333368559247045 -0.5709998943222588 0.40255270695261086
    endloop
  endfacet
  facet normal -0.74095112535496 0 -0.6715589548470173
    outer loop
      vertex 0.18552250880705687 -0.37999999999999995 0.3552543881992749
      vertex 0.18552250880705687 -0.5721779604425271 0.3552543881992749
      vertex 0.16970562748477142 -0.37999999999999995 0.37270562748477143
    endloop
  endfacet
  facet normal -0.9415440651830208 0 -0.3368898533922204
    outer loop
      vertex 0.22704200662837126 -0.37999999999999995 0.280001
      vertex 0.22704200662837126 -0.5749999625 0.280001
      vertex 0.2217310878027088 -0.37999999999999995 0.29484402376762153
    endloop
  endfacet
  facet normal -0.9039892931234433 0 -0.4275550934302821
    outer loop
      vertex 0.2217310878027088 -0.37999999999999995 0.29484402376762153
      vertex 0.2217310878027088 -0.5744433491087142 0.29484402376762153
      vertex 0.2116611034436052 -0.37999999999999995 0.3161352168382394
    endloop
  endfacet
  facet normal -0.8577286100002721 0 -0.5141027441932216
    outer loop
      vertex 0.2116611034436052 -0.37999999999999995 0.3161352168382394
      vertex 0.2116611034436052 -0.5736449293685659 0.3161352168382394
      vertex 0.19955270695261085 -0.37999999999999995 0.3363368559247045
    endloop
  endfacet
  facet normal -0.803207531480645 0 -0.5956993044924332
    outer loop
      vertex 0.19955270695261085 -0.37999999999999995 0.3363368559247045
      vertex 0.19955270695261085 -0.5728873679028236 0.3363368559247045
      vertex 0.18552250880705687 -0.37999999999999995 0.3552543881992749
    endloop
  endfacet
  facet normal -0.5141027441932212 0 -0.8577286100002723
    outer loop
      vertex 0.11313521683823943 -0.37999999999999995 0.4146611034436052
      vertex 0.1333368559247045 -0.37999999999999995 0.40255270695261086
      vertex 0.1333368559247045 -0.5709998943222588 0.40255270695261086
    endloop
  endfacet
  facet normal -0.5956993044924335 -3.922808959586475e-17 -0.8032075314806449
    outer loop
      vertex 0.15225438819927492 -0.37999999999999995 0.38852250880705685
      vertex 0.1436395942795512 -0.5706908121716135 0.394911675423641
      vertex 0.1333368559247045 -0.37999999999999995 0.40255270695261086
    endloop
  endfacet
  facet normal -0.6715589548470173 0 -0.7409511253549601
    outer loop
      vertex 0.16970562748477142 -0.37999999999999995 0.37270562748477143
      vertex 0.16970562748477142 -0.5715235389693211 0.37270562748477143
      vertex 0.15225438819927492 -0.37999999999999995 0.38852250880705685
    endloop
  endfacet
  facet normal 0 0 1
    outer loop
      vertex -0.22704200662837126 -0.37999999999999995 0.280001
      vertex -0.22704200662837126 -0.575 0.280001
      vertex 0.22704200662837126 -0.37999999999999995 0.280001
    endloop
  endfacet
  facet normal 0 0 1
    outer loop
      vertex 0.22704200662837126 -0.37999999999999995 0.280001
      vertex -0.22704200662837126 -0.575 0.280001
      vertex 0 -0.575 0.280001
    endloop
  endfacet
  facet normal 0 0 1
    outer loop
      vertex 0.22704200662837126 -0.37999999999999995 0.280001
      vertex 0 -0.575 0.280001
      vertex 0.0000012499999999665556 -0.5749999625 0.280001
    endloop
  endfacet
  facet normal 0 0 1
    outer loop
      vertex 0.22704200662837126 -0.37999999999999995 0.280001
      vertex 0.0000012499999999665556 -0.5749999625 0.280001
      vertex 0.22704200662837126 -0.5749999625 0.280001
    endloop
  endfacet
  facet normal 0 -1 0
    outer loop
      vertex -0.432 -0.575 0.28
      vertex -0.22704200662837126 -0.575 0.280001
      vertex -0.2217310878027088 -0.575 0.29484402376762153
    endloop
  endfacet
  facet normal 0 -1 0
    outer loop
      vertex -0.432 -0.575 0.28
      vertex -0.19955270695261085 -0.575 0.3363368559247045
      vertex -0.432 -0.575 0.74
    endloop
  endfacet
  facet normal 0 -1 0
    outer loop
      vertex -0.432 -0.575 0.28
      vertex -0.2217310878027088 -0.575 0.29484402376762153
      vertex -0.2116611034436052 -0.575 0.3161352168382394
    endloop
  endfacet
  facet normal 0 -1 0
    outer loop
      vertex -0.432 -0.575 0.28
      vertex -0.2116611034436052 -0.575 0.3161352168382394
      vertex -0.19955270695261085 -0.575 0.3363368559247045
    endloop
  endfacet
  facet normal 0 -1 0
    outer loop
      vertex -0.432 -0.575 0.28
      vertex 0 -0.575 0.28
      vertex -0.22704200662837126 -0.575 0.280001
    endloop
  endfacet
  facet normal 0 -1 0
    outer loop
      vertex -0.432 -0.575 0.74
      vertex -0.19955270695261085 -0.575 0.3363368559247045
      vertex -0.18552250880705687 -0.575 0.3552543881992749
    endloop
  endfacet
  facet normal 0 -1 0
    outer loop
      vertex -0.432 -0.575 0.74
      vertex -0.18552250880705687 -0.575 0.3552543881992749
      vertex -0.16970562748477142 -0.575 0.37270562748477143
    endloop
  endfacet
  facet normal 0 -1 0
    outer loop
      vertex -0.432 -0.575 0.74
      vertex -0.16970562748477142 -0.575 0.37270562748477143
      vertex -0.15225438819927492 -0.575 0.38852250880705685
    endloop
  endfacet
  facet normal 0 -1 0
    outer loop
      vertex -0.432 -0.575 0.74
      vertex -0.15225438819927492 -0.575 0.38852250880705685
      vertex -0.1333368559247045 -0.575 0.40255270695261086
    endloop
  endfacet
  facet normal 0 -1 0
    outer loop
      vertex -0.432 -0.575 0.74
      vertex -0.1333368559247045 -0.575 0.40255270695261086
      vertex -0.11313521683823943 -0.575 0.4146611034436052
    endloop
  endfacet
  facet normal 0 -1 0
    outer loop
      vertex -0.432 -0.575 0.74
      vertex -0.11313521683823943 -0.575 0.4146611034436052
      vertex -0.09184402376762155 -0.575 0.42473108780270885
    endloop
  endfacet
  facet normal 0 -1 0
    outer loop
      vertex -0.432 -0.575 0.74
      vertex -0.09184402376762155 -0.575 0.42473108780270885
      vertex -0.06966832254107096 -0.575 0.4326656805757301
    endloop
  endfacet
  facet normal 0 -1 0
    outer loop
      vertex -0.432 -0.575 0.74
      vertex -0.06966832254107096 -0.575 0.4326656805757301
      vertex -0.04682167728387078 -0.575 0.4383884672967753
    endloop
  endfacet
  facet normal 0 -1 0
    outer loop
      vertex 0 -0.575 0.28
      vertex 0 -0.575 0.280001
      vertex -0.22704200662837126 -0.575 0.280001
    endloop
  endfacet
  facet normal 0.029986509101790466 -0.9995503035224833 0
    outer loop
      vertex 0 -0.575 0.28
      vertex 0.0000012499999999665556 -0.5749999625 0.280001
      vertex 0 -0.575 0.280001
    endloop
  endfacet
  facet normal 0 -0.9992976157093625 0.037473660584247274
    outer loop
      vertex 0 -0.575 0.28
      vertex 0.22704200662837126 -0.5749999625 0.280001
      vertex 0.0000012499999999665556 -0.5749999625 0.280001
    endloop
  endfacet
  facet normal 0 -1 0
    outer loop
      vertex 0 -0.575 0.76
      vertex -0.04682167728387078 -0.575 0.4383884672967753
      vertex -0.023524113679094544 -0.575 0.44184433440132725
    endloop
  endfacet
  facet normal 0 -1 0
    outer loop
      vertex 0 -0.575 0.76
      vertex -0.023524113679094544 -0.575 0.44184433440132725
      vertex 0 -0.575 0.443
    endloop
  endfacet
  facet normal 0.02998650910566873 -0.9995503035223668 0
    outer loop
      vertex 0 -0.575 0.76
      vertex 0 -0.575 0.443
      vertex 0.023524113679094544 -0.5742942765896272 0.44184433440132725
    endloop
  endfacet
  facet normal 0.02998650910567275 -0.9995503035223667 2.9842615016394793e-16
    outer loop
      vertex 0 -0.575 0.76
      vertex 0.023524113679094544 -0.5742942765896272 0.44184433440132725
      vertex 0.04682167728387078 -0.5735953496814838 0.4383884672967753
    endloop
  endfacet
  facet normal 0 -1 0
    outer loop
      vertex -0.432 -0.575 0.74
      vertex -0.04682167728387078 -0.575 0.4383884672967753
      vertex 0 -0.575 0.76
    endloop
  endfacet
  facet normal -0.004710226239248153 -0.9947997817292106 0.10174088676776002
    outer loop
      vertex -0.432 -0.575 0.74
      vertex 0 -0.575 0.76
      vertex -0.432 -0.53 1.18
    endloop
  endfacet
  facet normal -1 0 0
    outer loop
      vertex -0.432 -0.575 0.28
      vertex -0.432 -0.575 0.74
      vertex -0.432 0.575 0.28
    endloop
  endfacet
  facet normal 0 0 -1
    outer loop
      vertex -0.432 -0.575 0.28
      vertex 0 0.575 0.28
      vertex 0 -0.575 0.28
    endloop
  endfacet
  facet normal 0 -0.9992976157093623 0.037473660584247274
    outer loop
      vertex 0 -0.575 0.28
      vertex 0.5 -0.575 0.28
      vertex 0.22704200662837126 -0.5749999625 0.280001
    endloop
  endfacet
  facet normal 4.3089911599646954e-16 -0.9992976157091805 0.037473660589099164
    outer loop
      vertex 0.5 -0.575 0.28
      vertex 0.2116611034436052 -0.5736449293685659 0.3161352168382394
      vertex 0.2217310878027088 -0.5744433491087142 0.29484402376762153
    endloop
  endfacet
  facet normal 1.777184406880552e-17 -0.9992976157091809 0.03747366058909143
    outer loop
      vertex 0.5 -0.575 0.28
      vertex 0.2217310878027088 -0.5744433491087142 0.29484402376762153
      vertex 0.22704200662837126 -0.5749999625 0.280001
    endloop
  endfacet
  facet normal -2.4751667394446996e-15 -0.9992976157091805 0.03747366058909626
    outer loop
      vertex 0.5 -0.56 0.68
      vertex 0.18552250880705687 -0.5721779604425271 0.3552543881992749
      vertex 0.19955270695261085 -0.5728873679028236 0.3363368559247045
    endloop
  endfacet
  facet normal 2.8804947733103664e-15 -0.9992976157091807 0.03747366058909155
    outer loop
      vertex 0.5 -0.56 0.68
      vertex 0.19955270695261085 -0.5728873679028236 0.3363368559247045
      vertex 0.2116611034436052 -0.5736449293685659 0.3161352168382394
    endloop
  endfacet
  facet normal 0.029986509105672007 -0.9995503035223667 -1.6399332852842714e-15
    outer loop
      vertex 0.5 -0.56 0.68
      vertex 0.11313521683823943 -0.5716059434948528 0.4146611034436052
      vertex 0.1333368559247045 -0.5709998943222588 0.40255270695261086
    endloop
  endfacet
  facet normal 0.029986509105665558 -0.999550303522367 7.045871048795287e-15
    outer loop
      vertex 0.5 -0.56 0.68
      vertex 0.1333368559247045 -0.5709998943222588 0.40255270695261086
      vertex 0.1436395942795512 -0.5706908121716135 0.394911675423641
    endloop
  endfacet
  facet normal 0.02998650910567236 -0.9995503035223668 -2.885112827077975e-15
    outer loop
      vertex 0.5 -0.56 0.68
      vertex 0.04682167728387078 -0.5735953496814838 0.4383884672967753
      vertex 0.06966832254107096 -0.5729099503237678 0.4326656805757301
    endloop
  endfacet
  facet normal 0.029986509105669766 -0.9995503035223667 1.6561401367158854e-15
    outer loop
      vertex 0.5 -0.56 0.68
      vertex 0.06966832254107096 -0.5729099503237678 0.4326656805757301
      vertex 0.09184402376762155 -0.5722446792869713 0.42473108780270885
    endloop
  endfacet
  facet normal 0.029986509105669468 -0.9995503035223668 2.0890656459145085e-15
    outer loop
      vertex 0.5 -0.56 0.68
      vertex 0.09184402376762155 -0.5722446792869713 0.42473108780270885
      vertex 0.11313521683823943 -0.5716059434948528 0.4146611034436052
    endloop
  endfacet
  facet normal 0.02998650910567081 -0.9995503035223668 1.4490005196142703e-17
    outer loop
      vertex 0 -0.575 0.76
      vertex 0.04682167728387078 -0.5735953496814838 0.4383884672967753
      vertex 0.5 -0.56 0.68
    endloop
  endfacet
  facet normal 2.0395165908839517e-15 -0.9992976157091807 0.037473660589091976
    outer loop
      vertex 0.5 -0.56 0.68
      vertex 0.16970562748477142 -0.5715235389693211 0.37270562748477143
      vertex 0.18552250880705687 -0.5721779604425271 0.3552543881992749
    endloop
  endfacet
  facet normal 1.556659972945414e-15 -0.9992976157091807 0.03747366058909248
    outer loop
      vertex 0.5 -0.56 0.68
      vertex 0.1436395942795512 -0.5706908121716135 0.394911675423641
      vertex 0.15225438819927492 -0.5709304059197354 0.38852250880705685
    endloop
  endfacet
  facet normal 1.8420823589449673e-15 -0.9992976157091809 0.03747366058909212
    outer loop
      vertex 0.5 -0.56 0.68
      vertex 0.15225438819927492 -0.5709304059197354 0.38852250880705685
      vertex 0.16970562748477142 -0.5715235389693211 0.37270562748477143
    endloop
  endfacet
  facet normal -2.1417893164780042e-16 -0.9992976157091807 0.037473660589094036
    outer loop
      vertex 0.5 -0.575 0.28
      vertex 0.5 -0.56 0.68
      vertex 0.2116611034436052 -0.5736449293685659 0.3161352168382394
    endloop
  endfacet
  facet normal 0.03556960957718809 -0.9987525841870601 0.035043950322353024
    outer loop
      vertex 0 -0.575 0.76
      vertex 0.5 -0.56 0.68
      vertex 0.5 -0.54 1.25
    endloop
  endfacet
  facet normal 0 0 -1
    outer loop
      vertex 0 -0.575 0.28
      vertex 0.5 0.575 0.28
      vertex 0.5 -0.575 0.28
    endloop
  endfacet
  facet normal -0.04431692469831511 -0.9902540415347639 0.13203387220463528
    outer loop
      vertex -0.432 -0.53 1.18
      vertex 0 -0.54 1.25
      vertex -0.432 -0.49 1.48
    endloop
  endfacet
  facet normal -0.03461322934958943 -0.9968610052681752 0.0712043575191552
    outer loop
      vertex 0 -0.575 0.76
      vertex 0 -0.54 1.25
      vertex -0.432 -0.53 1.18
    endloop
  endfacet
  facet normal -0.050375283235196584 -0.991385574068668 0.12090067976447183
    outer loop
      vertex 0 -0.54 1.25
      vertex 0 -0.49 1.66
      vertex -0.432 -0.49 1.48
    endloop
  endfacet
  facet normal -1 0 0
    outer loop
      vertex -0.432 -0.575 0.74
      vertex -0.432 -0.53 1.18
      vertex -0.432 0.53 1.18
    endloop
  endfacet
  facet normal -1 0 0
    outer loop
      vertex -0.432 -0.53 1.18
      vertex -0.432 -0.49 1.48
      vertex -0.432 0.49 1.48
    endloop
  endfacet
  facet normal -0.3846153846153845 0 0.9230769230769231
    outer loop
      vertex -0.432 -0.49 1.48
      vertex 0 -0.49 1.66
      vertex -0.432 0.49 1.48
    endloop
  endfacet
  facet normal 0 -0.997458699830735 0.07124704998790948
    outer loop
      vertex 0 -0.575 0.76
      vertex 0.5 -0.54 1.25
      vertex 0 -0.54 1.25
    endloop
  endfacet
  facet normal 0 -0.992645877550526 0.1210543753110399
    outer loop
      vertex 0 -0.54 1.25
      vertex 0.5 -0.54 1.25
      vertex 0 -0.49 1.66
    endloop
  endfacet
  facet normal -0.008834177344330106 -0.9938449512371351 0.11042721680412623
    outer loop
      vertex 0 -0.49 1.66
      vertex 0.5 -0.54 1.25
      vertex 0.5 -0.49 1.7
    endloop
  endfacet
  facet normal -0.07974522228289006 0 0.9968152785361251
    outer loop
      vertex 0 -0.49 1.66
      vertex 0.5 -0.49 1.7
      vertex 0 0.49 1.66
    endloop
  endfacet
  facet normal 0 0 -1
    outer loop
      vertex -0.432 -0.575 0.28
      vertex -0.432 0.575 0.28
      vertex 0 0.575 0.28
    endloop
  endfacet
  facet normal -1 0 0
    outer loop
      vertex -0.432 -0.575 0.74
      vertex -0.432 0.575 0.74
      vertex -0.432 0.575 0.28
    endloop
  endfacet
  facet normal -1 0 0
    outer loop
      vertex -0.432 -0.575 0.74
      vertex -0.432 0.53 1.18
      vertex -0.432 0.575 0.74
    endloop
  endfacet
  facet normal 0 1 0
    outer loop
      vertex -0.432 0.575 0.28
      vertex -0.2217310878027088 0.575 0.29484402376762153
      vertex -0.22704200662837126 0.575 0.280001
    endloop
  endfacet
  facet normal 0 1 0
    outer loop
      vertex -0.432 0.575 0.28
      vertex -0.432 0.575 0.74
      vertex -0.19955270695261085 0.575 0.3363368559247045
    endloop
  endfacet
  facet normal 0 1 0
    outer loop
      vertex -0.432 0.575 0.28
      vertex -0.2116611034436052 0.575 0.3161352168382394
      vertex -0.2217310878027088 0.575 0.29484402376762153
    endloop
  endfacet
  facet normal 0 1 0
    outer loop
      vertex -0.432 0.575 0.28
      vertex -0.19955270695261085 0.575 0.3363368559247045
      vertex -0.2116611034436052 0.575 0.3161352168382394
    endloop
  endfacet
  facet normal 0 1 0
    outer loop
      vertex -0.432 0.575 0.28
      vertex -0.22704200662837126 0.575 0.280001
      vertex 0 0.575 0.28
    endloop
  endfacet
  facet normal 0 1 0
    outer loop
      vertex -0.432 0.575 0.74
      vertex -0.18552250880705687 0.575 0.3552543881992749
      vertex -0.19955270695261085 0.575 0.3363368559247045
    endloop
  endfacet
  facet normal 0 1 0
    outer loop
      vertex -0.432 0.575 0.74
      vertex -0.16970562748477142 0.575 0.37270562748477143
      vertex -0.18552250880705687 0.575 0.3552543881992749
    endloop
  endfacet
  facet normal 0 1 0
    outer loop
      vertex -0.432 0.575 0.74
      vertex -0.15225438819927492 0.575 0.38852250880705685
      vertex -0.16970562748477142 0.575 0.37270562748477143
    endloop
  endfacet
  facet normal 0 1 0
    outer loop
      vertex -0.432 0.575 0.74
      vertex -0.1333368559247045 0.575 0.40255270695261086
      vertex -0.15225438819927492 0.575 0.38852250880705685
    endloop
  endfacet
  facet normal 0 1 0
    outer loop
      vertex -0.432 0.575 0.74
      vertex -0.11313521683823943 0.575 0.4146611034436052
      vertex -0.1333368559247045 0.575 0.40255270695261086
    endloop
  endfacet
  facet normal 0 1 0
    outer loop
      vertex -0.432 0.575 0.74
      vertex -0.09184402376762155 0.575 0.42473108780270885
      vertex -0.11313521683823943 0.575 0.4146611034436052
    endloop
  endfacet
  facet normal 0 1 0
    outer loop
      vertex -0.432 0.575 0.74
      vertex -0.06966832254107096 0.575 0.4326656805757301
      vertex -0.09184402376762155 0.575 0.42473108780270885
    endloop
  endfacet
  facet normal 0 1 0
    outer loop
      vertex -0.432 0.575 0.74
      vertex -0.04682167728387078 0.575 0.4383884672967753
      vertex -0.06966832254107096 0.575 0.4326656805757301
    endloop
  endfacet
  facet normal 0 1 0
    outer loop
      vertex 0 0.575 0.28
      vertex -0.22704200662837126 0.575 0.280001
      vertex 0 0.575 0.280001
    endloop
  endfacet
  facet normal 0.029986509101790362 0.9995503035224831 0
    outer loop
      vertex 0 0.575 0.28
      vertex 0 0.575 0.280001
      vertex 0.0000012499999999665599 0.5749999625 0.280001
    endloop
  endfacet
  facet normal 0 0.9992976157093625 0.037473660584247274
    outer loop
      vertex 0 0.575 0.28
      vertex 0.0000012499999999665599 0.5749999625 0.280001
      vertex 0.22704200662837126 0.5749999625 0.280001
    endloop
  endfacet
  facet normal 0 1 0
    outer loop
      vertex 0 0.575 0.76
      vertex -0.023524113679094544 0.575 0.44184433440132725
      vertex -0.04682167728387078 0.575 0.4383884672967753
    endloop
  endfacet
  facet normal 0 1 0
    outer loop
      vertex 0 0.575 0.76
      vertex 0 0.575 0.443
      vertex -0.023524113679094544 0.575 0.44184433440132725
    endloop
  endfacet
  facet normal 0.02998650910566873 0.9995503035223668 0
    outer loop
      vertex 0 0.575 0.76
      vertex 0.023524113679094544 0.5742942765896272 0.44184433440132725
      vertex 0 0.575 0.443
    endloop
  endfacet
  facet normal 0.02998650910567275 0.9995503035223667 2.9842615016394793e-16
    outer loop
      vertex 0 0.575 0.76
      vertex 0.04682167728387078 0.5735953496814838 0.4383884672967753
      vertex 0.023524113679094544 0.5742942765896272 0.44184433440132725
    endloop
  endfacet
  facet normal 0 1 0
    outer loop
      vertex -0.432 0.575 0.74
      vertex 0 0.575 0.76
      vertex -0.04682167728387078 0.575 0.4383884672967753
    endloop
  endfacet
  facet normal -0.004710226239248153 0.9947997817292106 0.10174088676776002
    outer loop
      vertex -0.432 0.575 0.74
      vertex -0.432 0.53 1.18
      vertex 0 0.575 0.76
    endloop
  endfacet
  facet normal 0 0 -1
    outer loop
      vertex 0 -0.575 0.28
      vertex 0 0.575 0.28
      vertex 0.5 0.575 0.28
    endloop
  endfacet
  facet normal 0 0.9992976157093623 0.037473660584247274
    outer loop
      vertex 0 0.575 0.28
      vertex 0.22704200662837126 0.5749999625 0.280001
      vertex 0.5 0.575 0.28
    endloop
  endfacet
  facet normal 4.3089911599646954e-16 0.9992976157091805 0.037473660589099164
    outer loop
      vertex 0.5 0.575 0.28
      vertex 0.2217310878027088 0.5744433491087142 0.29484402376762153
      vertex 0.2116611034436052 0.5736449293685659 0.3161352168382394
    endloop
  endfacet
  facet normal 1.777184406880552e-17 0.9992976157091809 0.03747366058909143
    outer loop
      vertex 0.5 0.575 0.28
      vertex 0.22704200662837126 0.5749999625 0.280001
      vertex 0.2217310878027088 0.5744433491087142 0.29484402376762153
    endloop
  endfacet
  facet normal -8.019149467540547e-16 0.9992976157091809 0.037473660589089346
    outer loop
      vertex 0.5 0.575 0.28
      vertex 0.2116611034436052 0.5736449293685659 0.3161352168382394
      vertex 0.19955270695261085 0.5728873679028236 0.3363368559247045
    endloop
  endfacet
  facet normal -2.4751667394446996e-15 0.9992976157091805 0.03747366058909626
    outer loop
      vertex 0.5 0.56 0.68
      vertex 0.19955270695261085 0.5728873679028236 0.3363368559247045
      vertex 0.18552250880705687 0.5721779604425271 0.3552543881992749
    endloop
  endfacet
  facet normal 7.843250578016626e-17 0.9992976157091806 0.03747366058909403
    outer loop
      vertex 0.5 0.575 0.28
      vertex 0.19955270695261085 0.5728873679028236 0.3363368559247045
      vertex 0.5 0.56 0.68
    endloop
  endfacet
  facet normal 0.029986509105672007 0.9995503035223667 -1.6399332852842714e-15
    outer loop
      vertex 0.5 0.56 0.68
      vertex 0.1333368559247045 0.5709998943222588 0.40255270695261086
      vertex 0.11313521683823943 0.5716059434948528 0.4146611034436052
    endloop
  endfacet
  facet normal 0.02998650910567099 0.9995503035223668 -1.5317110975641926e-16
    outer loop
      vertex 0.5 0.56 0.68
      vertex 0.1436395942795512 0.5706908121716134 0.394911675423641
      vertex 0.1333368559247045 0.5709998943222588 0.40255270695261086
    endloop
  endfacet
  facet normal 0.02998650910567236 0.9995503035223668 -2.885112827077975e-15
    outer loop
      vertex 0.5 0.56 0.68
      vertex 0.06966832254107096 0.5729099503237678 0.4326656805757301
      vertex 0.04682167728387078 0.5735953496814838 0.4383884672967753
    endloop
  endfacet
  facet normal 0.029986509105669766 0.9995503035223667 1.6561401367158854e-15
    outer loop
      vertex 0.5 0.56 0.68
      vertex 0.09184402376762155 0.5722446792869713 0.42473108780270885
      vertex 0.06966832254107096 0.5729099503237678 0.4326656805757301
    endloop
  endfacet
  facet normal 0.029986509105669468 0.9995503035223668 2.0890656459145085e-15
    outer loop
      vertex 0.5 0.56 0.68
      vertex 0.11313521683823943 0.5716059434948528 0.4146611034436052
      vertex 0.09184402376762155 0.5722446792869713 0.42473108780270885
    endloop
  endfacet
  facet normal 0.02998650910567081 0.9995503035223668 1.4490005196142703e-17
    outer loop
      vertex 0 0.575 0.76
      vertex 0.5 0.56 0.68
      vertex 0.04682167728387078 0.5735953496814838 0.4383884672967753
    endloop
  endfacet
  facet normal 2.0395165908839517e-15 0.9992976157091807 0.037473660589091976
    outer loop
      vertex 0.5 0.56 0.68
      vertex 0.18552250880705687 0.5721779604425271 0.3552543881992749
      vertex 0.16970562748477142 0.5715235389693211 0.37270562748477143
    endloop
  endfacet
  facet normal -5.310957554754941e-15 0.9992976157091804 0.03747366058910062
    outer loop
      vertex 0.5 0.56 0.68
      vertex 0.15225438819927492 0.5709304059197354 0.38852250880705685
      vertex 0.1436395942795512 0.5706908121716134 0.394911675423641
    endloop
  endfacet
  facet normal 1.8420823589449673e-15 0.9992976157091809 0.03747366058909212
    outer loop
      vertex 0.5 0.56 0.68
      vertex 0.16970562748477142 0.5715235389693211 0.37270562748477143
      vertex 0.15225438819927492 0.5709304059197354 0.38852250880705685
    endloop
  endfacet
  facet normal 0.03556960957718809 0.9987525841870601 0.035043950322353024
    outer loop
      vertex 0 0.575 0.76
      vertex 0.5 0.54 1.25
      vertex 0.5 0.56 0.68
    endloop
  endfacet
  facet normal -1 0 0
    outer loop
      vertex -0.432 -0.53 1.18
      vertex -0.432 0.49 1.48
      vertex -0.432 0.53 1.18
    endloop
  endfacet
  facet normal -0.3846153846153845 0 0.9230769230769231
    outer loop
      vertex 0 -0.49 1.66
      vertex 0 0.49 1.66
      vertex -0.432 0.49 1.48
    endloop
  endfacet
  facet normal -0.04431692469831511 0.9902540415347639 0.13203387220463528
    outer loop
      vertex -0.432 0.53 1.18
      vertex -0.432 0.49 1.48
      vertex 0 0.54 1.25
    endloop
  endfacet
  facet normal -0.03461322934958943 0.9968610052681752 0.0712043575191552
    outer loop
      vertex 0 0.575 0.76
      vertex -0.432 0.53 1.18
      vertex 0 0.54 1.25
    endloop
  endfacet
  facet normal -0.050375283235196584 0.991385574068668 0.12090067976447183
    outer loop
      vertex 0 0.54 1.25
      vertex -0.432 0.49 1.48
      vertex 0 0.49 1.66
    endloop
  endfacet
  facet normal -0.07974522228289006 0 0.9968152785361251
    outer loop
      vertex 0.5 -0.49 1.7
      vertex 0.5 0.49 1.7
      vertex 0 0.49 1.66
    endloop
  endfacet
  facet normal 0 0.997458699830735 0.07124704998790948
    outer loop
      vertex 0 0.575 0.76
      vertex 0 0.54 1.25
      vertex 0.5 0.54 1.25
    endloop
  endfacet
  facet normal 0 0.992645877550526 0.1210543753110399
    outer loop
      vertex 0 0.54 1.25
      vertex 0 0.49 1.66
      vertex 0.5 0.54 1.25
    endloop
  endfacet
  facet normal -0.008834177344330106 0.9938449512371351 0.11042721680412623
    outer loop
      vertex 0 0.49 1.66
      vertex 0.5 0.49 1.7
      vertex 0.5 0.54 1.25
    endloop
  endfacet
  facet normal 0.023054584849233145 -0.9990320101334427 0.03746370038000386
    outer loop
      vertex 0.5 -0.575 0.28
      vertex 1.15 -0.56 0.28
      vertex 0.5 -0.56 0.68
    endloop
  endfacet
  facet normal 0.012816678686508496 -0.9997009375476615 0.0208271028655763
    outer loop
      vertex 0.5 -0.56 0.68
      vertex 1.15 -0.56 0.28
      vertex 1.15 -0.55 0.76
    endloop
  endfacet
  facet normal 0.011058644855966327 -0.9993238827159803 0.03506399588477127
    outer loop
      vertex 0.5 -0.56 0.68
      vertex 1.15 -0.55 0.76
      vertex 0.5 -0.54 1.25
    endloop
  endfacet
  facet normal 0 0 -1
    outer loop
      vertex 0.5 -0.575 0.28
      vertex 1.15 0.56 0.28
      vertex 1.15 -0.56 0.28
    endloop
  endfacet
  facet normal 0.17487991882297726 -0.9836995433792467 0.04185955503741468
    outer loop
      vertex 1.15 -0.56 0.28
      vertex 1.6 -0.48 0.28
      vertex 1.6 -0.46 0.75
    endloop
  endfacet
  facet normal 0.19651159492000445 -0.9802887875917081 0.02042268307482727
    outer loop
      vertex 1.15 -0.56 0.28
      vertex 1.6 -0.46 0.75
      vertex 1.15 -0.55 0.76
    endloop
  endfacet
  facet normal 0.47312045817120396 -0.880201185722677 0.03745536960522022
    outer loop
      vertex 1.6 -0.48 0.28
      vertex 1.79 -0.36 0.7
      vertex 1.6 -0.46 0.75
    endloop
  endfacet
  facet normal 0.4653334715663537 -0.884133595976072 0.04210159980838445
    outer loop
      vertex 1.6 -0.48 0.28
      vertex 1.79 -0.38 0.28
      vertex 1.79 -0.36 0.7
    endloop
  endfacet
  facet normal 0.19694489473865548 -0.9663184087644312 0.1656545843596167
    outer loop
      vertex 1.15 -0.55 0.76
      vertex 1.6 -0.46 0.75
      vertex 1.6 -0.4 1.1
    endloop
  endfacet
  facet normal 0.4997801450936021 -0.8356324025965023 0.22789974616268235
    outer loop
      vertex 1.6 -0.46 0.75
      vertex 1.79 -0.36 0.7
      vertex 1.79 -0.3 0.92
    endloop
  endfacet
  facet normal 0.5616419693118736 -0.8154845187606895 0.13979734607326103
    outer loop
      vertex 1.6 -0.46 0.75
      vertex 1.79 -0.3 0.92
      vertex 1.6 -0.4 1.1
    endloop
  endfacet
  facet normal 0 0 -1
    outer loop
      vertex 1.15 -0.56 0.28
      vertex 1.6 0.48 0.28
      vertex 1.6 -0.48 0.28
    endloop
  endfacet
  facet normal 0 0 -1
    outer loop
      vertex 1.6 -0.48 0.28
      vertex 1.79 0.38 0.28
      vertex 1.79 -0.38 0.28
    endloop
  endfacet
  facet normal 1 0 0
    outer loop
      vertex 1.79 -0.38 0.28
      vertex 1.79 0.38 0.28
      vertex 1.79 -0.36 0.7
    endloop
  endfacet
  facet normal 1 0 0
    outer loop
      vertex 1.79 -0.36 0.7
      vertex 1.79 0.3 0.92
      vertex 1.79 -0.3 0.92
    endloop
  endfacet
  facet normal 0.030697250544988106 -0.9976606427121125 0.06108126383951715
    outer loop
      vertex 0.5 -0.54 1.25
      vertex 1.15 -0.55 0.76
      vertex 1.15 -0.52 1.25
    endloop
  endfacet
  facet normal 0.03062259232278054 -0.9952342504903664 0.09257993027817371
    outer loop
      vertex 0.5 -0.54 1.25
      vertex 1.15 -0.52 1.25
      vertex 1.15 -0.48 1.68
    endloop
  endfacet
  facet normal 0.018685149432572705 -0.9937102198231836 0.11041224664702051
    outer loop
      vertex 0.5 -0.54 1.25
      vertex 1.15 -0.48 1.68
      vertex 0.5 -0.49 1.7
    endloop
  endfacet
  facet normal 0.03075467578697399 0 0.9995269630766537
    outer loop
      vertex 0.5 -0.49 1.7
      vertex 1.15 -0.48 1.68
      vertex 0.5 0.49 1.7
    endloop
  endfacet
  facet normal 0.27545339819740505 -0.9595177614933308 0.058745985397550916
    outer loop
      vertex 1.15 -0.55 0.76
      vertex 1.6 -0.4 1.1
      vertex 1.15 -0.52 1.25
    endloop
  endfacet
  facet normal 0.28417513193296223 -0.9546508338372953 0.0888047287290508
    outer loop
      vertex 1.15 -0.52 1.25
      vertex 1.6 -0.4 1.1
      vertex 1.15 -0.48 1.68
    endloop
  endfacet
  facet normal 0.6877446479107834 0 0.7259526839058265
    outer loop
      vertex 1.79 -0.3 0.92
      vertex 1.6 0.4 1.1
      vertex 1.6 -0.4 1.1
    endloop
  endfacet
  facet normal 0.7900851548187129 0 0.612997102876588
    outer loop
      vertex 1.15 -0.48 1.68
      vertex 1.6 -0.4 1.1
      vertex 1.15 0.48 1.68
    endloop
  endfacet
  facet normal 0 0 -1
    outer loop
      vertex 0.5 -0.575 0.28
      vertex 0.5 0.575 0.28
      vertex 1.15 0.56 0.28
    endloop
  endfacet
  facet normal 0.023054584849233145 0.9990320101334427 0.03746370038000386
    outer loop
      vertex 0.5 0.575 0.28
      vertex 0.5 0.56 0.68
      vertex 1.15 0.56 0.28
    endloop
  endfacet
  facet normal 0.012816678686508496 0.9997009375476615 0.0208271028655763
    outer loop
      vertex 0.5 0.56 0.68
      vertex 1.15 0.55 0.76
      vertex 1.15 0.56 0.28
    endloop
  endfacet
  facet normal 0.011058644855966327 0.9993238827159803 0.03506399588477127
    outer loop
      vertex 0.5 0.56 0.68
      vertex 0.5 0.54 1.25
      vertex 1.15 0.55 0.76
    endloop
  endfacet
  facet normal 0 0 -1
    outer loop
      vertex 1.15 -0.56 0.28
      vertex 1.15 0.56 0.28
      vertex 1.6 0.48 0.28
    endloop
  endfacet
  facet normal 0 0 -1
    outer loop
      vertex 1.6 -0.48 0.28
      vertex 1.6 0.48 0.28
      vertex 1.79 0.38 0.28
    endloop
  endfacet
  facet normal 1 0 0
    outer loop
      vertex 1.79 -0.36 0.7
      vertex 1.79 0.38 0.28
      vertex 1.79 0.36 0.7
    endloop
  endfacet
  facet normal 1 0 0
    outer loop
      vertex 1.79 -0.36 0.7
      vertex 1.79 0.36 0.7
      vertex 1.79 0.3 0.92
    endloop
  endfacet
  facet normal 0.6877446479107833 0 0.7259526839058263
    outer loop
      vertex 1.79 -0.3 0.92
      vertex 1.79 0.3 0.92
      vertex 1.6 0.4 1.1
    endloop
  endfacet
  facet normal 0.17487991882297726 0.9836995433792467 0.04185955503741468
    outer loop
      vertex 1.15 0.56 0.28
      vertex 1.6 0.46 0.75
      vertex 1.6 0.48 0.28
    endloop
  endfacet
  facet normal 0.19651159492000445 0.9802887875917081 0.02042268307482727
    outer loop
      vertex 1.15 0.56 0.28
      vertex 1.15 0.55 0.76
      vertex 1.6 0.46 0.75
    endloop
  endfacet
  facet normal 0.4653334715663537 0.884133595976072 0.04210159980838442
    outer loop
      vertex 1.79 0.38 0.28
      vertex 1.6 0.48 0.28
      vertex 1.79 0.36 0.7
    endloop
  endfacet
  facet normal 0.47312045817120396 0.880201185722677 0.03745536960522022
    outer loop
      vertex 1.6 0.48 0.28
      vertex 1.6 0.46 0.75
      vertex 1.79 0.36 0.7
    endloop
  endfacet
  facet normal 0.19694489473865548 0.9663184087644312 0.1656545843596167
    outer loop
      vertex 1.15 0.55 0.76
      vertex 1.6 0.4 1.1
      vertex 1.6 0.46 0.75
    endloop
  endfacet
  facet normal 0.4997801450936022 0.8356324025965023 0.22789974616268235
    outer loop
      vertex 1.79 0.36 0.7
      vertex 1.6 0.46 0.75
      vertex 1.79 0.3 0.92
    endloop
  endfacet
  facet normal 0.5616419693118736 0.8154845187606895 0.13979734607326103
    outer loop
      vertex 1.79 0.3 0.92
      vertex 1.6 0.46 0.75
      vertex 1.6 0.4 1.1
    endloop
  endfacet
  facet normal 0.03075467578697399 0 0.9995269630766537
    outer loop
      vertex 0.5 0.49 1.7
      vertex 1.15 -0.48 1.68
      vertex 1.15 0.48 1.68
    endloop
  endfacet
  facet normal 0.030697250544988106 0.9976606427121125 0.06108126383951715
    outer loop
      vertex 0.5 0.54 1.25
      vertex 1.15 0.52 1.25
      vertex 1.15 0.55 0.76
    endloop
  endfacet
  facet normal 0.03062259232278054 0.9952342504903664 0.09257993027817371
    outer loop
      vertex 0.5 0.54 1.25
      vertex 1.15 0.48 1.68
      vertex 1.15 0.52 1.25
    endloop
  endfacet
  facet normal 0.018685149432572705 0.9937102198231836 0.11041224664702051
    outer loop
      vertex 0.5 0.54 1.25
      vertex 0.5 0.49 1.7
      vertex 1.15 0.48 1.68
    endloop
  endfacet
  facet normal 0.7900851548187131 0 0.6129971028765882
    outer loop
      vertex 1.6 -0.4 1.1
      vertex 1.6 0.4 1.1
      vertex 1.15 0.48 1.68
    endloop
  endfacet
  facet normal 0.27545339819740505 0.9595177614933308 0.058745985397550916
    outer loop
      vertex 1.15 0.55 0.76
      vertex 1.15 0.52 1.25
      vertex 1.6 0.4 1.1
    endloop
  endfacet
  facet normal 0.28417513193296223 0.9546508338372953 0.0888047287290508
    outer loop
      vertex 1.15 0.52 1.25
      vertex 1.15 0.48 1.68
      vertex 1.6 0.4 1.1
    endloop
  endfacet
endsolid OpenSCAD_Model
