# Generated from etrike_body.scad; do not edit by hand.
o etrike_body
v -0.2078728948150395 0.49 0.28910377228214523
v -0.2078728948150395 0.575 0.28910377228214523
v -0.21096286963367722 0.49 0.280001
v -0.1948557158514987 0.49 0.3155
v -0.1948557158514987 0.575 0.3155
v -0.1785045015655279 0.49 0.3399713215269622
v -0.1785045015655279 0.575 0.3399713215269622
v -0.1590990257669732 0.49 0.3620990257669732
v -0.1590990257669732 0.575 0.3620990257669732
v -0.21008737676839653 0.575 0.2825801188132745
v -0.21096286963367722 0.575 0.280001
v -0.20418469410870294 0.575 0.2965827034688707
v -0.19022287180380698 0.575 0.32243354109930594
v -0.17300628342260407 0.575 0.34624083772829867
v -0.1125 0.49 0.3978557158514987
v 0.0861037722821452 0.49 0.4108728948150395
v -0.0861037722821452 0.49 0.4108728948150395
v 0.058234285148067166 0.49 0.4203333109150404
v -0.058234285148067166 0.49 0.4203333109150404
v 0.029368393249511605 0.49 0.42607509380910735
v -0.029368393249511605 0.49 0.42607509380910735
v 0.09141724350792686 0.575 0.280001
v -0.1432408377282986 0.575 0.3760062834226041
v -0.13697132152696215 0.49 0.38150450156552795
v -0.11943354109930594 0.575 0.393222871803807
v -0.09358270346887072 0.575 0.40718469410870295
v -0.13697132152696215 0.575 0.38150450156552795
v -0.1125 0.575 0.3978557158514987
v -0.0861037722821452 0.575 0.4108728948150395
v -0.06613063983605594 0.575 0.4176528596867068
v -0.03754706262076901 0.575 0.42444825532245506
v -0.058234285148067166 0.575 0.4203333109150404
v -0.029368393249511605 0.575 0.42607509380910735
v -0.008321044754028284 0.575 0.42745460991258044
v 0.1125 0.49 0.3978557158514987
v 0 0.49 0.42800000000000005
v 0.13697132152696215 0.49 0.38150450156552795
v 0.02104734849548332 0.575 0.42662048389652696
v 0.05005561577680976 0.575 0.4219601494016927
v 0 0.575 0.42800000000000005
v 0.029368393249511605 0.575 0.42607509380910735
v 0.10502106881327448 0.575 0.4015439165578353
v 0.1125 0.575 0.3978557158514987
v 0.07820741759415643 0.575 0.4135533460433731
v 0.0861037722821452 0.575 0.4108728948150395
v 0.058234285148067166 0.575 0.4203333109150404
v 0.1948557158514987 0.49 0.3155
v 0.1785045015655279 0.49 0.3399713215269622
v 0.2078728948150395 0.49 0.28910377228214523
v 0.1590990257669732 0.49 0.3620990257669732
v 0.18313734561321962 0.575 0.33303778042765625
v 0.16459724390989705 0.575 0.35582950956563675
v 0.1948557158514987 0.575 0.3155
v 0.1590990257669732 0.575 0.3620990257669732
v 0.15282950956563673 0.575 0.36759724390989706
v 0.1785045015655279 0.575 0.3399713215269622
v 0.19854391655783526 0.575 0.3080210688132745
v 0.21096286963367722 0.575 0.280001
v 0.2087483876803202 0.575 0.28652465346887074
v 0.2078728948150395 0.575 0.28910377228214523
v 0.1300377804276562 0.575 0.38613734561321966
v 0.13697132152696215 0.575 0.38150450156552795
v -0.21096286963367722 -0.49 0.280001
v -0.21096286963367722 -0.575 0.280001
v -0.2087483876803202 -0.575 0.28652465346887074
v -0.2078728948150395 -0.49 0.28910377228214523
v -0.2078728948150395 -0.575 0.28910377228214523
v -0.19854391655783526 -0.575 0.3080210688132745
v -0.1948557158514987 -0.49 0.3155
v -0.1948557158514987 -0.575 0.3155
v -0.18313734561321962 -0.575 0.33303778042765625
v -0.1785045015655279 -0.49 0.3399713215269622
v -0.1785045015655279 -0.575 0.3399713215269622
v -0.16459724390989705 -0.575 0.35582950956563675
v -0.1590990257669732 -0.49 0.3620990257669732
v -0.1590990257669732 -0.575 0.3620990257669732
v -0.15282950956563673 -0.575 0.36759724390989706
v -0.09141724350792686 -0.575 0.280001
v -0.13697132152696215 -0.49 0.38150450156552795
v -0.1125 -0.49 0.3978557158514987
v 0.1125 -0.49 0.3978557158514987
v -0.13697132152696215 -0.575 0.38150450156552795
v -0.1300377804276562 -0.575 0.38613734561321966
v -0.1125 -0.575 0.3978557158514987
v -0.10502106881327448 -0.575 0.4015439165578353
v -0.0861037722821452 -0.575 0.4108728948150395
v -0.0861037722821452 -0.49 0.4108728948150395
v -0.07820741759415643 -0.575 0.4135533460433731
v -0.058234285148067166 -0.575 0.4203333109150404
v -0.058234285148067166 -0.49 0.4203333109150404
v -0.05005561577680976 -0.575 0.4219601494016927
v -0.029368393249511605 -0.575 0.42607509380910735
v -0.029368393249511605 -0.49 0.42607509380910735
v -0.02104734849548332 -0.575 0.42662048389652696
v 0 -0.575 0.42800000000000005
v 0.0861037722821452 -0.49 0.4108728948150395
v 0.13697132152696215 -0.49 0.38150450156552795
v 0.1785045015655279 -0.49 0.3399713215269622
v 0.1948557158514987 -0.49 0.3155
v 0.1590990257669732 -0.49 0.3620990257669732
v 0 -0.49 0.42800000000000005
v 0.008321044754028284 -0.575 0.42745460991258044
v 0.029368393249511605 -0.575 0.42607509380910735
v 0.029368393249511605 -0.49 0.42607509380910735
v 0.03754706262076901 -0.575 0.42444825532245506
v 0.058234285148067166 -0.575 0.4203333109150404
v 0.058234285148067166 -0.49 0.4203333109150404
v 0.0861037722821452 -0.575 0.4108728948150395
v 0.09358270346887072 -0.575 0.40718469410870295
v 0.1125 -0.575 0.3978557158514987
v 0.11943354109930594 -0.575 0.393222871803807
v 0.06613063983605594 -0.575 0.4176528596867068
v 0.1785045015655279 -0.575 0.3399713215269622
v 0.19022287180380698 -0.575 0.32243354109930594
v 0.17300628342260407 -0.575 0.34624083772829867
v 0.1590990257669732 -0.575 0.3620990257669732
v 0.21096286963367722 -0.49 0.280001
v 0.2078728948150395 -0.575 0.28910377228214523
v 0.21008737676839653 -0.575 0.2825801188132745
v 0.2078728948150395 -0.49 0.28910377228214523
v 0.20418469410870294 -0.575 0.2965827034688707
v 0.1948557158514987 -0.575 0.3155
v 0.21096286963367722 -0.575 0.280001
v 0.13697132152696215 -0.575 0.38150450156552795
v 0.1432408377282986 -0.575 0.3760062834226041
v -0.432 -0.575 0.28
v -0.432 -0.575 0.78
v 0.85 -0.575 0.28
v -0.432 0.575 0.28
v 0.85 -0.575 0.78
v -0.432 -0.42 1.68
v -0.432 0.42 1.68
v 0.85 -0.42 1.7
v 0.85 0.42 1.7
v -0.432 0.575 0.78
v 0.85 0.575 0.78
v 0.85 0.575 0.28
v 1.28 -0.44 0.28
v 1.28 -0.5 0.78
v 1.79 -0.44 0.76
v 1.79 -0.42 0.28
v 1.79 -0.36 1.1
v 1.28 0.44 0.28
v 1.79 0.42 0.28
v 1.79 0.36 1.1
v 1.28 -0.34 1.55
v 1.28 0.34 1.55
v 1.28 0.5 0.78
v 1.79 0.44 0.76
f 1 2 3
f 4 5 1
f 6 7 4
f 8 9 6
f 3 10 11
f 3 2 10
f 1 12 2
f 1 5 12
f 4 13 5
f 4 7 13
f 6 14 7
f 6 9 14
f 15 16 17
f 17 18 19
f 19 20 21
f 22 6 4
f 8 23 9
f 22 8 6
f 22 24 8
f 22 15 24
f 24 23 8
f 15 25 24
f 17 26 15
f 24 27 23
f 24 25 27
f 15 28 25
f 15 26 28
f 17 29 26
f 19 30 17
f 21 31 19
f 17 30 29
f 19 32 30
f 19 31 32
f 21 33 31
f 21 34 33
f 15 35 16
f 21 20 36
f 19 18 20
f 17 16 18
f 22 35 15
f 22 37 35
f 36 34 21
f 20 38 36
f 18 39 20
f 36 40 34
f 36 38 40
f 20 41 38
f 20 39 41
f 35 42 16
f 37 43 35
f 16 44 18
f 16 45 44
f 16 42 45
f 35 43 42
f 18 46 39
f 18 44 46
f 22 47 48
f 22 49 47
f 22 50 37
f 22 48 50
f 47 51 48
f 48 52 50
f 47 53 51
f 50 54 55
f 48 56 52
f 48 51 56
f 50 52 54
f 49 57 47
f 49 58 59
f 49 59 60
f 49 60 57
f 47 57 53
f 50 55 37
f 37 61 43
f 37 62 61
f 37 55 62
f 3 11 1
f 11 4 1
f 22 4 11
f 49 22 58
f 63 64 65
f 66 65 67
f 66 67 68
f 69 68 70
f 69 70 71
f 72 71 73
f 72 73 74
f 75 74 76
f 75 76 77
f 63 65 66
f 66 68 69
f 66 69 78
f 69 72 78
f 69 71 72
f 72 74 75
f 72 75 78
f 75 79 78
f 79 80 78
f 80 81 78
f 75 77 82
f 79 82 83
f 79 83 84
f 80 84 85
f 80 85 86
f 75 82 79
f 79 84 80
f 80 86 87
f 87 86 88
f 87 88 89
f 90 89 91
f 90 91 92
f 93 92 94
f 93 94 95
f 87 89 90
f 90 92 93
f 80 87 81
f 87 90 96
f 81 97 78
f 98 99 78
f 97 100 78
f 100 98 78
f 101 95 102
f 101 102 103
f 104 103 105
f 104 105 106
f 93 95 101
f 101 103 104
f 104 106 107
f 96 108 109
f 96 109 110
f 81 110 111
f 107 106 112
f 107 112 108
f 81 111 97
f 96 110 81
f 107 108 96
f 87 96 81
f 90 93 107
f 93 101 104
f 93 104 107
f 90 107 96
f 99 113 114
f 98 115 113
f 98 116 115
f 97 116 100
f 98 113 99
f 100 116 98
f 117 118 119
f 120 121 118
f 120 122 121
f 117 119 123
f 99 114 122
f 120 118 117
f 99 122 120
f 97 124 125
f 97 111 124
f 97 125 116
f 66 78 64
f 63 66 64
f 99 123 78
f 117 123 120
f 120 123 99
f 126 65 64
f 126 67 65
f 126 68 67
f 126 70 68
f 126 71 70
f 126 73 71
f 126 127 73
f 127 74 73
f 127 76 74
f 127 77 76
f 127 82 77
f 127 83 82
f 127 84 83
f 127 85 84
f 127 86 85
f 127 88 86
f 127 89 88
f 127 91 89
f 127 92 91
f 127 94 92
f 126 64 128
f 127 95 94
f 127 102 95
f 127 103 102
f 126 129 127
f 126 128 129
f 128 64 78
f 128 78 123
f 128 113 115
f 128 109 108
f 128 111 110
f 128 110 109
f 128 125 124
f 128 115 116
f 128 116 125
f 128 124 111
f 128 105 103
f 128 106 105
f 128 112 106
f 128 108 112
f 127 128 103
f 128 121 122
f 128 119 118
f 128 123 119
f 128 118 121
f 128 122 114
f 128 114 113
f 127 130 128
f 127 131 130
f 127 132 131
f 131 133 130
f 131 134 133
f 127 129 135
f 129 11 10
f 129 10 2
f 129 2 12
f 129 12 5
f 129 5 13
f 129 13 7
f 129 7 14
f 129 14 9
f 129 9 23
f 129 23 27
f 129 27 25
f 129 22 11
f 129 25 28
f 129 28 26
f 129 26 29
f 129 58 22
f 129 29 136
f 129 136 135
f 129 128 137
f 129 137 58
f 136 29 30
f 136 30 32
f 136 32 31
f 136 31 33
f 136 33 34
f 136 34 40
f 136 40 38
f 136 38 41
f 136 41 39
f 136 39 46
f 136 46 44
f 136 54 52
f 136 52 56
f 136 43 61
f 136 44 45
f 136 45 42
f 136 42 43
f 136 62 55
f 136 61 62
f 136 55 54
f 136 60 59
f 136 59 58
f 137 136 58
f 136 53 57
f 136 51 53
f 136 57 60
f 136 56 51
f 127 135 132
f 131 132 134
f 135 136 132
f 132 136 134
f 128 130 138
f 130 139 138
f 128 138 137
f 138 139 140
f 138 140 141
f 139 142 140
f 138 141 143
f 141 140 144
f 140 142 145
f 130 146 139
f 130 133 146
f 133 147 146
f 139 146 142
f 142 146 145
f 138 143 137
f 137 143 148
f 137 148 136
f 140 149 144
f 141 144 143
f 140 145 149
f 143 149 148
f 143 144 149
f 148 149 145
f 133 134 147
f 136 148 147
f 136 147 134
f 146 147 145
f 148 145 147
